<svg xmlns="http://www.w3.org/2000/svg" width="20cm" height="8.711cm" viewBox="0 0 566.929 246.929"><path d="M315.39,43.682a3.673,3.673,0,0,1,1,2.494,4.619,4.619,0,0,1-1.062,2.868L290.7,79.846q.936.063,3.555.06,12.158,0,20.076-2.431a12,12,0,0,1,.747,3.493,2.478,2.478,0,0,1-.655,1.838,3.2,3.2,0,0,1-1.5.873,19.337,19.337,0,0,1-2.464.406q-3.925.374-10.412.372a127.531,127.531,0,0,1-15.275-.747,5.126,5.126,0,0,1-1.122-3.117,6.23,6.23,0,0,1,1.558-3.928L308.1,47.424q-2.43-.189-5.985-.189a68.674,68.674,0,0,0-16.025,1.686,9.453,9.453,0,0,1-.622-3.118,2.558,2.558,0,0,1,1.807-2.682,38.855,38.855,0,0,1,8.107-.624,150.41,150.41,0,0,1,20.012,1.185" fill="#575756"/><path d="M340.768,67q-.936-2.551-1.841-5.33t-1.9-5.954q-1-3.179-1.371-4.363-2.992,9.416-5.488,15.587,3.989.126,6.112.123c2.16,0,3.655-.018,4.489-.063m-5.8,4.678q-1.62,0-6.733-.126Q324.18,81.965,323.246,85.4q-5.55-.626-5.548-2.557,0-.873,2.65-7.076T326.8,59.955q3.8-9.6,5.986-17.022a22.929,22.929,0,0,1,3.24-.186,4.231,4.231,0,0,1,2.525.656,5.405,5.405,0,0,1,1.592,2.648q4.8,14.964,6.982,20.576,4.676,12.156,7.047,16.835a9.017,9.017,0,0,1-3.99,1.246,3.849,3.849,0,0,1-3.618-1.684q-.749-1.931-2.087-5.7t-2.09-5.768q-6.113.126-7.42.126" fill="#575756"/><path d="M357.1,69.682V57.212q0-8.667-.435-14.341a20.455,20.455,0,0,1,3.3-.312q4.176,0,4.176,2.37,0,.373-.123,2.651t-.252,5.579q-.122,3.307-.123,6.172,3.368.063,8.854.063t8.6-.063V57.212q0-8.667-.436-14.341a20.475,20.475,0,0,1,3.3-.312q4.176,0,4.179,2.37,0,.373-.126,2.525t-.249,5.361q-.126,3.213-.126,6.081V71.428q0,8.3,1.185,12.221a11.459,11.459,0,0,1-3.864.624,4.572,4.572,0,0,1-3.149-.813,3.7,3.7,0,0,1-.842-2.743c0-.663.021-2.307.063-4.923s.061-4.657.061-6.112V63.945q-3.178.063-8.792.063-5.486,0-8.665-.063v7.483q0,8.3,1.185,12.221a11.477,11.477,0,0,1-3.867.624,4.577,4.577,0,0,1-3.149-.813,3.71,3.71,0,0,1-.839-2.743c0-.663.019-2.307.06-4.923s.063-4.657.063-6.112" fill="#575756"/><path d="M420.387,78.161a4.2,4.2,0,0,0,3.3,1.746,5.976,5.976,0,0,0,1.434-.186,5.785,5.785,0,0,1,.562,2.181,2.237,2.237,0,0,1-1.526,2.119,9,9,0,0,1-3.71.687q-3.62,0-6.424-3.555a38.334,38.334,0,0,1-4.051-6.7A78.966,78.966,0,0,1,406.669,67a2.009,2.009,0,0,1-1.434-2,6.455,6.455,0,0,1,.5-2.431,9.459,9.459,0,0,0,2.3.249,8.164,8.164,0,0,0,5.643-2.027q2.277-2.025,2.278-6.017,0-4.424-2.184-6.14t-6.8-1.715a39.978,39.978,0,0,0-4.053.249q.251,3.492.249,12.409V71.74q0,8.228,1.185,12.032a11.742,11.742,0,0,1-3.865.5,4.572,4.572,0,0,1-3.149-.813,3.7,3.7,0,0,1-.841-2.743q0-.995.063-4.926t.06-6.109V57.212a105.413,105.413,0,0,0-.81-14.341,63.58,63.58,0,0,1,9.79-.748q17.52,0,17.519,12.656a12.1,12.1,0,0,1-2.588,7.95A12.808,12.808,0,0,1,413.714,67q4.054,8.667,6.673,11.161" fill="#575756"/><path d="M450.5,67q-.936-2.551-1.84-5.33t-1.9-5.954q-1-3.179-1.371-4.363Q442.4,60.768,439.9,66.939q3.989.126,6.112.123c2.16,0,3.655-.018,4.488-.063m-5.8,4.678q-1.62,0-6.733-.126-4.055,10.414-4.99,13.844-5.549-.626-5.547-2.557,0-.873,2.65-7.076t6.453-15.807q3.8-9.6,5.985-17.022a22.955,22.955,0,0,1,3.241-.186,4.233,4.233,0,0,1,2.525.656,5.4,5.4,0,0,1,1.591,2.648q4.8,14.964,6.982,20.576,4.677,12.156,7.048,16.835a9.017,9.017,0,0,1-3.99,1.246,3.851,3.851,0,0,1-3.619-1.684q-.747-1.931-2.087-5.7t-2.089-5.768q-6.112.126-7.42.126" fill="#575756"/><path d="M473.63,47.173q.252,4.054.252,9.541a199.028,199.028,0,0,1-.873,20.823,12.23,12.23,0,0,0,7.417,2.184,12.4,12.4,0,0,0,6.049-1.4,9.842,9.842,0,0,0,3.9-3.741,18.942,18.942,0,0,0,1.964-4.864,21.981,21.981,0,0,0,.621-5.267q0-8.731-4.082-13.125t-11.691-4.4q-1.183,0-3.555.249M466.4,80.78q.873-5.672,1-20.949a135.85,135.85,0,0,0-.81-16.961,55.368,55.368,0,0,1,10.039-.747,35.727,35.727,0,0,1,9.072,1.059,22.906,22.906,0,0,1,7.357,3.4,15.182,15.182,0,0,1,5.175,6.579,25.47,25.47,0,0,1,1.838,10.162q0,9.356-5.173,15.369t-14.776,6.018q-8.858,0-13.718-3.928" fill="#575756"/><path d="M537.6,84.022a14.125,14.125,0,0,1-2.743.249q-3.118,0-4.179-1.683-2.931-4.738-8.946-15.275t-9.072-15.464l.312,16.274q.185,12.6,1.246,15.65a8.685,8.685,0,0,1-2.992.5,4.589,4.589,0,0,1-3.149-.81,3.7,3.7,0,0,1-.842-2.742q0-1,.064-4.927t.062-6.111V57.211q0-10.41-1.185-14.216a12.68,12.68,0,0,1,3.8-.5,5.72,5.72,0,0,1,4.489,1.809q2.867,3.178,8.605,12.625t8.917,16.056q-.5-7.112-.5-15.089,0-9.29-.438-15.152a20.315,20.315,0,0,1,2.556-.186q4.113,0,4.116,2.37,0,.373-.125,2.525t-.281,5.362q-.158,3.209-.155,6.077V69.557q0,8.79.436,14.465" fill="#575756"/><path d="M545.954,69.682V57.212q0-8.667-.435-14.341a20.475,20.475,0,0,1,3.3-.312q4.176,0,4.176,2.37c0,.249-.039,1.091-.123,2.525s-.168,3.222-.249,5.361-.126,4.169-.126,6.081V71.428q0,8.3,1.185,12.221a11.474,11.474,0,0,1-3.865.624,4.569,4.569,0,0,1-3.148-.813,3.7,3.7,0,0,1-.842-2.743c0-.663.018-2.307.063-4.923s.06-4.657.06-6.112m10.6-36.662a44.166,44.166,0,0,1-4.709,2.869,28.461,28.461,0,0,0-5.268,3.552q-1.868-1.683-1.869-3.054a1.87,1.87,0,0,1,.624-1.4,9.385,9.385,0,0,1,1.68-1.216,25.151,25.151,0,0,0,3.244-2.525,55.516,55.516,0,0,0,4.614-4.583q3.367,1.746,3.367,3.678a3.319,3.319,0,0,1-1.683,2.682" fill="#575756"/><path d="M314.518,138.8a8.1,8.1,0,0,1,2.368,1.778,3.347,3.347,0,0,1,1,2.275q0,2.558-3.647,4.4a20.356,20.356,0,0,1-9.2,1.84q-9.1,0-14.62-5.894t-5.519-15.43q0-9.976,5.519-15.618t14.932-5.642a16.827,16.827,0,0,1,8.479,1.963q3.429,1.963,3.43,4.833a3.468,3.468,0,0,1-1.214,2.619,6.917,6.917,0,0,1-3.71,1.494A7.963,7.963,0,0,0,309,112.959a9.216,9.216,0,0,0-5.018-1.528,10.429,10.429,0,0,0-8.634,4.3,17.165,17.165,0,0,0-3.338,10.849q0,7.543,3.4,12.564a10.9,10.9,0,0,0,9.573,5.019,11.747,11.747,0,0,0,5.422-1.34,9.721,9.721,0,0,0,4.116-4.022" fill="#575756"/><path d="M330.916,112.117q.248,2.431.249,11.66h4.677a69.884,69.884,0,0,0,7.108-.249,5.515,5.515,0,0,1,.249,1.995,3.507,3.507,0,0,1-.624,2.4,2.834,2.834,0,0,1-2,.718q-1.561.063-4.177.063h-5.238q0,12.408.437,14.9,2.616.126,4.3.126,9.978,0,12.908-1.371a10.009,10.009,0,0,1,.5,3.3,2.79,2.79,0,0,1-.561,2q-1.183.936-10.663.936-8.48,0-10.349-.126a3.476,3.476,0,0,1-2.588-.842,4.287,4.287,0,0,1-.655-2.711c0-.789.021-2.5.063-5.112s.063-4.636.063-6.049v-12.1a92.48,92.48,0,0,0-.873-14.153q6.795-.559,13.9-.561,9.225,0,10.414.936a2.8,2.8,0,0,1,.561,2,10.582,10.582,0,0,1-.5,3.366q-3.429-1.31-10.847-1.308-3,0-6.36.186" fill="#575756"/><path d="M385.783,148.405a14.125,14.125,0,0,1-2.743.249q-3.118,0-4.179-1.683-2.929-4.74-8.946-15.275t-9.072-15.464l.312,16.274q.186,12.6,1.246,15.65a8.685,8.685,0,0,1-2.992.5,4.589,4.589,0,0,1-3.149-.81,3.7,3.7,0,0,1-.841-2.743q0-1,.063-4.926t.062-6.112v-12.47q0-10.41-1.185-14.215a12.648,12.648,0,0,1,3.8-.5,5.72,5.72,0,0,1,4.489,1.809q2.866,3.177,8.605,12.624t8.917,16.056q-.5-7.11-.5-15.089,0-9.288-.438-15.151a20.145,20.145,0,0,1,2.556-.187q4.115,0,4.116,2.371,0,.373-.125,2.524T385.5,117.2q-.158,3.213-.155,6.078V133.94q0,8.79.436,14.465" fill="#575756"/><path d="M401.37,134.064V121.6q0-3.492-.124-9.352-8.856,0-11.659.249a9.88,9.88,0,0,1-.189-2.245,3.031,3.031,0,0,1,.656-2.276,3.276,3.276,0,0,1,2.087-.655q1.557-.059,7.3-.063h7.357q10.473,0,12.656-.186a9.5,9.5,0,0,1,.189,2.181,3.033,3.033,0,0,1-.656,2.276,3.276,3.276,0,0,1-2.089.656q-1.746.063-8.665.063-.315,6.732-.313,11.035v12.533q0,8.289,1.186,12.22a11.487,11.487,0,0,1-3.868.624,4.579,4.579,0,0,1-3.149-.813,3.7,3.7,0,0,1-.839-2.742q0-.994.061-4.927t.063-6.109" fill="#575756"/><path d="M447.7,142.544a4.2,4.2,0,0,0,3.3,1.746,5.838,5.838,0,0,0,1.434-.189,5.794,5.794,0,0,1,.561,2.184,2.239,2.239,0,0,1-1.526,2.119,9.019,9.019,0,0,1-3.71.687q-3.618,0-6.424-3.556a38.263,38.263,0,0,1-4.05-6.7,79.154,79.154,0,0,1-3.307-7.452,2.008,2.008,0,0,1-1.434-2,6.473,6.473,0,0,1,.5-2.43,9.612,9.612,0,0,0,2.305.249,8.157,8.157,0,0,0,5.642-2.027q2.277-2.025,2.278-6.017,0-4.425-2.184-6.14t-6.8-1.715a39.978,39.978,0,0,0-4.053.249q.252,3.492.249,12.409v12.158q0,8.228,1.185,12.032a11.746,11.746,0,0,1-3.865.5,4.576,4.576,0,0,1-3.148-.812,3.7,3.7,0,0,1-.842-2.743q0-.994.063-4.926t.06-6.109V121.6a105.429,105.429,0,0,0-.81-14.342,63.58,63.58,0,0,1,9.79-.747q17.521,0,17.52,12.656a12.1,12.1,0,0,1-2.588,7.949,12.8,12.8,0,0,1-6.828,4.271q4.056,8.668,6.673,11.162" fill="#575756"/><path d="M457.046,107.441a12.485,12.485,0,0,1,3.679-.5,6.478,6.478,0,0,1,3.46.716,2.728,2.728,0,0,1,1.091,2.464q0,2.556-.467,11.44t-.469,13.812q0,4.239,2.184,6.266a7.268,7.268,0,0,0,5.113,2.024,13.43,13.43,0,0,0,5.642-1.371,15.135,15.135,0,0,0,4.769-3.3v-1.964q0-1.53.032-5.424t.031-10.008q0-8.727-.438-14.4a27.407,27.407,0,0,1,3.43-.249q4.054,0,4.053,2.368c0,.083-.042.854-.126,2.307s-.165,3.731-.249,6.827-.123,6.683-.123,10.755q0,9.668.186,12.939a26.677,26.677,0,0,0,1,6.017,11.793,11.793,0,0,1-3.864.5,4.742,4.742,0,0,1-3.118-.778,3.8,3.8,0,0,1-.873-2.9v-1.185a19,19,0,0,1-5.828,3.833,15.944,15.944,0,0,1-6.266,1.466q-5.676,0-9.012-2.774t-3.335-9.819q0-3.681.281-9.977t.28-9.289a37.9,37.9,0,0,0-1.059-9.79" fill="#575756"/><path d="M538.037,121.283v14.528q0,8.415,1.185,12.343a7.607,7.607,0,0,1-3.366.5q-2.561,0-3.43-.813a3.612,3.612,0,0,1-.873-2.742V117.043q-4.117,10.225-10.474,31.3a9.635,9.635,0,0,1-2.307.249q-3.245,0-3.991-1.62-1.872-4.118-5.55-14.748t-5.548-15.307v18.894q0,8.415,1.185,12.343a11.4,11.4,0,0,1-3.243.5,4.084,4.084,0,0,1-2.96-.813,3.88,3.88,0,0,1-.782-2.742q0-.994.063-4.927t.063-6.109V118.352a40.186,40.186,0,0,0-1.185-10.973,22.819,22.819,0,0,1,4.426-.5,6.021,6.021,0,0,1,5.427,2.991,60.914,60.914,0,0,1,4.643,9.51q2.277,5.7,3.493,9.633t3.4,11.284q5.238-19.7,11.6-30.55a5.617,5.617,0,0,1,5.3-2.868,13.968,13.968,0,0,1,4.053.5q-1.12,3.739-1.122,13.9" fill="#575756"/><path d="M283.031,220.269q-2.74,0-2.742-4.863a14.9,14.9,0,0,0,3.149-1.028,8.243,8.243,0,0,0,1.932-1.248,3.93,3.93,0,0,0,1.059-1.932,11.905,11.905,0,0,0,.407-2.4q.058-1.12.06-3.3V185.978q0-8.668-.435-14.342a21.1,21.1,0,0,1,3.429-.312q4.052,0,4.054,2.371,0,.31-.126,2.307t-.249,4.955q-.126,2.961-.126,5.642v19.329a19.806,19.806,0,0,1-1.122,6.984,10.756,10.756,0,0,1-2.866,4.489,13.19,13.19,0,0,1-3.369,2.182,7.84,7.84,0,0,1-3.055.686" fill="#575756"/><path d="M301.362,198.447v-12.47q0-8.667-.435-14.341a20.433,20.433,0,0,1,3.3-.312q4.177,0,4.177,2.37,0,.374-.123,2.525t-.252,5.362q-.121,3.213-.123,6.08v12.532q0,8.29,1.185,12.221a11.477,11.477,0,0,1-3.867.624,4.575,4.575,0,0,1-3.149-.813,3.708,3.708,0,0,1-.839-2.742q0-1,.06-4.927t.063-6.109" fill="#575756"/><path d="M340.642,206.926a4.2,4.2,0,0,0,3.3,1.746,5.849,5.849,0,0,0,1.435-.188,5.794,5.794,0,0,1,.561,2.184,2.237,2.237,0,0,1-1.526,2.118,9,9,0,0,1-3.71.687q-3.618,0-6.424-3.555a38.277,38.277,0,0,1-4.05-6.7,79,79,0,0,1-3.307-7.451,2.008,2.008,0,0,1-1.434-1.995,6.459,6.459,0,0,1,.5-2.431,9.612,9.612,0,0,0,2.305.249,8.164,8.164,0,0,0,5.642-2.026q2.277-2.026,2.278-6.018,0-4.424-2.184-6.14t-6.8-1.715a39.978,39.978,0,0,0-4.053.249q.252,3.494.249,12.407v12.16q0,8.228,1.185,12.032a11.742,11.742,0,0,1-3.865.5,4.574,4.574,0,0,1-3.149-.813,3.7,3.7,0,0,1-.841-2.742q0-1,.063-4.927t.06-6.109v-12.47a105.413,105.413,0,0,0-.81-14.341,63.58,63.58,0,0,1,9.79-.747q17.521,0,17.519,12.655a12.1,12.1,0,0,1-2.587,7.95,12.811,12.811,0,0,1-6.828,4.271q4.055,8.669,6.673,11.161" fill="#575756"/><path d="M350.118,198.447v-12.47q0-8.667-.435-14.341a20.433,20.433,0,0,1,3.3-.312q4.178,0,4.177,2.37c0,.21-.042.946-.123,2.213s-.168,3-.252,5.207-.123,4.53-.123,6.982a82.191,82.191,0,0,0,9.04-8.23,38.219,38.219,0,0,0,6.547-8.479,9.406,9.406,0,0,1,2.742,1.248,2.321,2.321,0,0,1,.936,2,4.751,4.751,0,0,1-.965,2.4,26.559,26.559,0,0,1-3.366,3.836q-2.4,2.371-4.116,3.959t-5.457,4.955q.811,1.435,2.308,4.085t2.275,4.022q.78,1.372,2.059,3.429a30.615,30.615,0,0,0,2.118,3.086q.841,1.03,1.9,2.182a7.069,7.069,0,0,0,2.027,1.623,4.468,4.468,0,0,0,1.966.466,7.06,7.06,0,0,0,1.683-.186,4.573,4.573,0,0,1,.561,2,2.455,2.455,0,0,1-1.279,2.213,6.624,6.624,0,0,1-3.461.779,8.14,8.14,0,0,1-5.611-2.525,26.9,26.9,0,0,1-4.488-5.456q-1.81-2.929-6.049-10.849a2.687,2.687,0,0,0-.218-.373,1.585,1.585,0,0,1-.186-.343,2.588,2.588,0,0,0-.22-.406l-.747.561v6.111q0,8.29,1.185,12.221a11.477,11.477,0,0,1-3.867.624,4.575,4.575,0,0,1-3.149-.813,3.708,3.708,0,0,1-.839-2.742q0-1,.06-4.927t.063-6.109" fill="#575756"/><path d="M413.9,193.271a28.2,28.2,0,0,0-1.154-8.261,14.358,14.358,0,0,0-4.114-6.484,10.437,10.437,0,0,0-7.325-2.711,11.432,11.432,0,0,0-9.229,4.082,15.789,15.789,0,0,0-3.43,10.506,30.376,30.376,0,0,0,1.154,8.605,14.857,14.857,0,0,0,4.116,6.733,10.232,10.232,0,0,0,7.326,2.8,11.165,11.165,0,0,0,9.352-4.239q3.3-4.239,3.3-11.036m-12.719,20.2q-8.979,0-14.308-5.8t-5.332-15.464q0-9.789,5.332-15.555t14.308-5.768q9.1,0,14.465,5.768t5.362,15.555q0,9.663-5.394,15.464t-14.433,5.8" fill="#575756"/><path d="M451.435,171.325a13.6,13.6,0,0,1,3.43-.436,4.4,4.4,0,0,1,2.805.685,2.97,2.97,0,0,1,.81,2.37q0,6.858-4.363,18.361t-8.917,17.3a10.374,10.374,0,0,1-2.9,2.745,6.459,6.459,0,0,1-3.086.684,11.8,11.8,0,0,1-2.431-.186,154.535,154.535,0,0,0-6.764-22.944Q425.249,177,421.881,173.7q3.3-2.431,5.551-2.433a3.717,3.717,0,0,1,3.427,2.307A126.1,126.1,0,0,1,436.5,188.1q3.145,9.414,5.141,17.27a58.53,58.53,0,0,0,7.079-15.149,52.853,52.853,0,0,0,2.96-15.839,12.776,12.776,0,0,0-.249-3.054" fill="#575756"/><path d="M19.683,116.542c-.213,4.583-.045,9.182-.247,13.794-.22-6.167-.923-12.365-.556-18.5A90.9,90.9,0,0,1,25.456,82.99c1.793-4.423,3.846-8.741,5.873-13.067.3-.642,1.093-1.051,1.657-1.568-.165.65-.328,1.177-.44,1.531a22.575,22.575,0,0,1-2.638,5.572c-.317.474-.6.844-.771,1.069-1.73,4.382-3.66,8.7-5.126,13.167a98.88,98.88,0,0,0-2.6,11.041c-.163.781.251,1.678.485,3-.459-.619-.6-.808-.955-1.282-.451,4.871-1.043,9.47-1.258,14.084m134.932,2.465a4.375,4.375,0,0,1-1.4-1.628c-.123-.2-.247-.391-.375-.58l1.153.58a1.286,1.286,0,0,0,1.7-1.773l-.6-1.069.758-.205a1.283,1.283,0,0,0,.847-.734,1.269,1.269,0,0,0-.053-1.122l-1.691-3.107-.375-.69a1.287,1.287,0,0,0-2.011-.325l.019-.285a1.148,1.148,0,0,0-.3-.871,1.186,1.186,0,0,0-.865-.375,1.135,1.135,0,0,0-1.023.627L149.589,109l-.407-.76a1.275,1.275,0,0,0-1.127-.674,1.308,1.308,0,0,0-.934.391,2.766,2.766,0,0,1-1.935.959c-1.061,0-2.176-.836-3.222-2.425l6.636.871c.029,0,.058,0,.087,0a.664.664,0,0,0,.411-.144.678.678,0,0,0,.247-.454l.052-.548.026-.273a.659.659,0,0,0-.582-.721L145,104.789l-.362-.042a9.536,9.536,0,0,0,.779-1.057c.747-1.109,1.25-1.791,2.2-1.791a2.731,2.731,0,0,1,.706.1,8.934,8.934,0,0,0,2.3.411,3.557,3.557,0,0,0,2.181-.7v.283a1.288,1.288,0,0,0,1.29,1.285,1.262,1.262,0,0,0,.967-.446l.381-.443.949.918.739.715a1.131,1.131,0,0,0-.27.8c.042.616.577,1.08,1.1,1.529a3.557,3.557,0,0,1,.729.752.485.485,0,0,1-.1.092,1.313,1.313,0,0,0-.5,1.156,1.259,1.259,0,0,0,.674,1c1.72.888,2.672,1.481,2.229,3.217l-.768-1.563a.664.664,0,0,0-.449-.354.706.706,0,0,0-.144-.016.657.657,0,0,0-.412.145l-.369.3a1.287,1.287,0,0,0-.477,1.1l.01.17a6.971,6.971,0,0,0,.157,1.251,5.64,5.64,0,0,0,.339.923l-.247.023a1.285,1.285,0,0,0-.605,2.331l.128.089,1.2.845a3.208,3.208,0,0,1-2.766,1.717,4.527,4.527,0,0,1-1.971-.514m-.485,9.727c-.9.926-1.83,1.885-2.74,1.885a2.04,2.04,0,0,1-1.28-.571l1.01-1.133.524-.595v.042a.663.663,0,0,0,.422.616.663.663,0,0,0,.727-.168l1.709-1.851c.364.37.579.8-.372,1.775M143.742,111.5a3.734,3.734,0,0,1-1.484-.6l-.228-.125a1.282,1.282,0,0,0-1.686.409,1.263,1.263,0,0,0-.22.736l-.26.281c-.165-.05-.333-.1-.5-.147-.776-.223-1.951-.561-2.085-.912a3.009,3.009,0,0,1,.024-2.468,3.324,3.324,0,0,1,1.84-1.552l5.163,4.13a.788.788,0,0,1-.561.246m-8.978,7.643a1.28,1.28,0,0,0,1.094.613c.052,0,.107,0,.165-.01l.847-.108-.393.559a1.285,1.285,0,0,0,1.043,2.027,1.243,1.243,0,0,0,.215-.019l.438-.07.419-.071-.18,1.507a7.764,7.764,0,0,1-1.534.158,8.064,8.064,0,0,1-5.268-2.061,2.991,2.991,0,0,1-1.2-2.433,2.857,2.857,0,0,1,1.439-2.155c.357-.229.71-.465,1.062-.7a20.55,20.55,0,0,1,3.587-2.068,2.962,2.962,0,0,1,1.117-.239,3.433,3.433,0,0,1,2.506,1.432c-.32.013-.619.026-.9.026a4.686,4.686,0,0,1-.952-.079l-.034,0a9.869,9.869,0,0,0-1.691-.249c-1.366,0-1.537,1.038-1.8,2.614a.4.4,0,0,1-.031.089,1.267,1.267,0,0,0,.049,1.243m-5.33-13.684a14.453,14.453,0,0,1-3.2-1.135,6.223,6.223,0,0,1-1.557-1.471,11.13,11.13,0,0,0-1.227-1.292,20.459,20.459,0,0,0-2.247-1.589l-.052-.034,1.035-.514,1.83-.91a.66.66,0,0,0,.354-.721,6.776,6.776,0,0,1,5.3,4.9,14.457,14.457,0,0,1,.328,2.609l.021.312c-.189-.053-.386-.105-.58-.158m-8.445,6.725a12.37,12.37,0,0,1-2.294-.212c-.356-1.867.357-3.06,2.378-3.983a5.214,5.214,0,0,0,1.856-1.774c.116-.153.226-.3.339-.438a1.283,1.283,0,0,0,.437.267l5.569,2.006c-1.179,2.475-4.5,4.134-8.285,4.134m-1.557,23.537c-.336.43-.682.876-1.015,1.324-1.091,1.476-2.373,2.842-4.334,2.842a4.933,4.933,0,0,1-.855-.078,2.333,2.333,0,0,0-.372-.035,1.31,1.31,0,0,0-.6.132,14.464,14.464,0,0,1-6.8,1.515,44.124,44.124,0,0,1-6.568-.674,45.59,45.59,0,0,0-6.736-.687c-1.282,0-2.666-.794-4.132-1.633-.5-.286-1.012-.58-1.539-.855l.724-.828,1.169.82.784.548a1.168,1.168,0,0,0,.669.215,1.18,1.18,0,0,0,.952-.49,1.148,1.148,0,0,0,.154-1.044l-.123-.372,1.505.768a.658.658,0,0,0,.808-.162l.207-.247.322-.383a.658.658,0,0,0,.147-.529.65.65,0,0,0-.307-.459l-1.688-1.036-1.264-.773.055-.191h4.607a1.285,1.285,0,0,0,1.282-1.212l.107-1.895a1.283,1.283,0,0,0-1.279-1.359,1.271,1.271,0,0,0-.171.014l-1.038.136.354-.482a1.284,1.284,0,0,0-1.025-2.048,1.469,1.469,0,0,0-.265.026l-.676.139-.019-.207a3.017,3.017,0,0,1,.058-1.453,5.721,5.721,0,0,1,1.432-1.484c.136-.112.275-.225.411-.343l.239.16a.661.661,0,0,0,1.017-.684l-.393-1.859,4.643.351.042.236a1.166,1.166,0,0,0,2.137.419l.435-.694.194.055v.71a1.278,1.278,0,0,0,1.293,1.288,1.256,1.256,0,0,0,1.051-.562l.572-.831.1.084a1.147,1.147,0,0,0,.731.26,1.187,1.187,0,0,0,.855-.365,1.128,1.128,0,0,0,.31-.841,1.542,1.542,0,0,1,.548-1.33,1.284,1.284,0,0,0,.333-1.413c-.142-.362-.415-.438-.4-.54.021-.136.542-.238,2.574-.134l1.828.142c1.318.1,2.682.207,4.027.286,1.649.094,1.767.794,1.88,2.37a9.4,9.4,0,0,0,.175,1.439c.559,2.428,1.6,5.876,4.182,7.782-.445,2.467-1.843,4.258-3.324,6.151m-19.57,10.642c-3.128,1.39-6.08,2.706-9.239,2.706a11.158,11.158,0,0,1-2.816-.359,54.43,54.43,0,0,1-8.658-3.348,1.823,1.823,0,0,1-1.035-1.151,4.174,4.174,0,0,1,.556-3.047,1.165,1.165,0,0,0,2.173.152l.645-1.4.435.824a1.281,1.281,0,0,0,1.136.684,1.3,1.3,0,0,0,.658-.181l.278-.168a3.615,3.615,0,0,1,1.544-.666c1.2.011,3.364,2.087,4.208,4.035a1.292,1.292,0,0,0,1.188.784,1.264,1.264,0,0,0,1-.485l.582-.736.112.039.113.039v.768a1.284,1.284,0,0,0,2.323.755l.551-.757.33.291a1.171,1.171,0,0,0,.755.275,1.158,1.158,0,0,0,1.12-.847l.157-.577.2.048a10.836,10.836,0,0,1,1.408.385c.736.275,1.463.595,2.383,1l.023.011c-.721.307-1.434.624-2.126.933m-24.037-2.949-3.734-.989-3.94-1.043.005-.381c.508-.078,1.02-.175,1.515-.267a19.721,19.721,0,0,1,3.556-.448,7.806,7.806,0,0,1,.915.052,1.821,1.821,0,0,1,1.292.7,3.143,3.143,0,0,1,.391,2.371M72.81,148.7c-.548.65-1.049,1.007-1.411,1.007-.265,0-.543-.21-.826-.627a1.152,1.152,0,0,0-.946-.5,1.2,1.2,0,0,0-1.1.737l-.05.108-.1-.084-1.081-.852a3.9,3.9,0,0,1,3.105-1.718,4.662,4.662,0,0,1,3.046,1.306,5.143,5.143,0,0,0-.639.624m29.538-55.369Zm5.957,17.354a.414.414,0,0,0,.01.063,1.285,1.285,0,0,0,.64.908l.307.17a20.871,20.871,0,0,1,2.454,1.515,3.219,3.219,0,0,1,.039.693,18.076,18.076,0,0,1-2.63.217h-.05l0,0a3.75,3.75,0,0,0-.391-1.461,12.455,12.455,0,0,0-1.408-1.725l0,0Zm8.411-7.092.264.821a1.284,1.284,0,0,0,2.462-.06l.362-1.345,1.227.322,2.221.585a1.308,1.308,0,0,0-.291.414.647.647,0,0,0-.325.16l-.737.656-.566.5.118-.842a.663.663,0,0,0-.477-.726.63.63,0,0,0-.179-.026.658.658,0,0,0-.605.4c-.706,1.6-1.319,2.226-2.187,2.226a3.07,3.07,0,0,1-1.141-.265c-.5-.205-.784-.456-.873-.768a2.765,2.765,0,0,1,.727-2.051m-.811-15,1.068-.238v.013a1.288,1.288,0,0,0,1.017,1.256l2.26.485a.836.836,0,0,0,.139.013.667.667,0,0,0,.582-.346l.141-.265.425-.789a.654.654,0,0,0,0-.632h.013a1.156,1.156,0,0,0,.857-.372,3.436,3.436,0,0,1-1.45,3.251,2.519,2.519,0,0,1-1.235.341c-1.174,0-2.457-.915-3.815-2.717m46.048,40.781.367,0c.9,0,1.815.024,2.7.047s1.82.048,2.735.048c.637,0,1.214-.011,1.759-.034a23.049,23.049,0,0,0,5.546-.874,1.97,1.97,0,0,0,1.03-1.061,4.476,4.476,0,0,1,.249-.4,1.331,1.331,0,0,0,1.2-.362,1.255,1.255,0,0,0,.359-.915c-.008-.4.055-.527.1-.566.217-.223,1.318-.223,1.678-.223.414,0,.891.01,1.444.026h.034a1.287,1.287,0,0,0,1.143-.684c.121-.236.231-.477.336-.708a4.53,4.53,0,0,1,.519-.955,39.782,39.782,0,0,1,4.633-.634c.307-.029.616-.06.931-.092l-.215.527-.732,1.807-.38-.027-1.049-.076h-.047a.662.662,0,0,0-.634.475l-.087.3a.661.661,0,0,0,.367.792l1.364.6.862.381a14.458,14.458,0,0,0-2.569,1.777c-1.311,1.059-2.444,1.974-4.025,1.974a4.674,4.674,0,0,1-1.02-.118,3.678,3.678,0,0,0-.781-.078,3.476,3.476,0,0,0-2.231.723,15.235,15.235,0,0,1-5.233,2.9,30.707,30.707,0,0,0-3.01,1.311,4.31,4.31,0,0,1-2.017.437c-2.81,0-6.528-2.055-6.929-4.606a1.524,1.524,0,0,1,.215-1.243,1.866,1.866,0,0,1,1.389-.464M177.6,108.887a21.78,21.78,0,0,1,2.994-1.217,3.161,3.161,0,0,1,.881-.134c1.122,0,2.032.692,3.309,1.975l-1.188.592-.559.286a1.285,1.285,0,0,0,.333,2.4l.758.152-.288.393a30.536,30.536,0,0,1-2.205,2.8c-.2-.062-.533-.2-.747-.291l-.147-.06.285-.7a1.283,1.283,0,0,0-1.074-1.764l-.913-.081.278-1.844.141-.941a1.167,1.167,0,0,0-1.15-1.342h-.832l-.021-.092-.01-.058ZM122.177,157.96ZM41.2,137Zm7.834-8.82Zm154.18-20.48Zm-49.777-27.81a2.362,2.362,0,0,1,.577.063,1.261,1.261,0,0,0,.328.042,1.307,1.307,0,0,0,1.033-.509,1.233,1.233,0,0,0,.217-1.077,2.877,2.877,0,0,0-3.177-2.169c-.37,0-.75.027-1.12.05a1.3,1.3,0,0,0-.933.477,1.283,1.283,0,0,0-.268,1l.215,1.411a.663.663,0,0,0,.315.467l-.818,1.565c-.173-.991-.3-1.707-.475-2.441a4.23,4.23,0,0,0-.508-1.141c-.076-.131-.152-.262-.218-.4a1.661,1.661,0,0,0-1.471-1.1,2.523,2.523,0,0,0-1.287.477,2.233,2.233,0,0,1-.477.249,1.086,1.086,0,0,0-.761.493.982.982,0,0,0-.112.8l.223.726-2.643.5A4.623,4.623,0,0,0,139.258,75a1.287,1.287,0,0,0,.609-1.031,1.329,1.329,0,0,0-.617-1.164l-1.651-1.1a1.29,1.29,0,0,0-1.225-.1,8.01,8.01,0,0,1-2.54.818c-.4,0-.716-.168-1.3-1.039l.6-.084a1.34,1.34,0,0,0,1.135-.928,1.277,1.277,0,0,0-.708-1.523l-1.111-.5.065-.1a1.268,1.268,0,0,0,.058-1.314,1.282,1.282,0,0,0-1.125-.679,1.3,1.3,0,0,0-.4.063l-1.419.451L129,64.805a.661.661,0,0,0-.629-.459.3.3,0,0,0-.05,0l-.577.042-.632.047a.665.665,0,0,0-.369.149,1.494,1.494,0,0,1,.157-.763,3.132,3.132,0,0,1,1.238-.267c.283-.031.59-.066.909-.115a1.278,1.278,0,0,0,1.026-.9,4.049,4.049,0,0,0-.048-3.314c-.516-.82-1.541-1.313-3.324-1.594a1.192,1.192,0,0,0-.21-.018,1.27,1.27,0,0,0-1.119.671,1.31,1.31,0,0,0,.065,1.348c.43.655.677,1.565-.776,3.35-.768.947-1.358,1.406-1.806,1.406-.47,0-1.062-.522-1.809-1.592a4.05,4.05,0,0,1-.318-.592,3.217,3.217,0,0,0-.82-1.206,24.982,24.982,0,0,0-2.4-1.649l-.092-.058a1.272,1.272,0,0,0-.679-.2,1.292,1.292,0,0,0-.98.451l-2.961,3.44a.664.664,0,0,0-.042.81l.244.349.171.246a.668.668,0,0,0,.542.284.647.647,0,0,0,.231-.042l.417-.155-.06.162a1.016,1.016,0,0,0,.11.952,1.048,1.048,0,0,0,.863.456,1.019,1.019,0,0,0,.707-.288l1.251-1.185.021.183a1.221,1.221,0,0,0,1.057,1.091,1.146,1.146,0,0,0,1.13-.6l.128-.233c1.8,1.555,2.887,2.74,1.571,4.806-.108.17-.784.312-1.188.4l-.254.052-.512-2.4a1.2,1.2,0,0,0-.925-.952,1.158,1.158,0,0,0-1.316.747l-.063.171-.037.1-.081-.144a1.112,1.112,0,0,0-.981-.592,1.262,1.262,0,0,0-1.2,1.371l0,1.431c-.27-.283-.54-.6-.8-.915-.878-1.046-1.783-2.126-3.059-2.126a3.56,3.56,0,0,0-2.585,1.518,1.019,1.019,0,0,0-.244.758,1.069,1.069,0,0,0,.4.731l1.2.97-.624.15a1.285,1.285,0,0,0-.5,2.255l.617.49-.551.176a1.027,1.027,0,0,0-.619.553,1.1,1.1,0,0,0,0,.889l.25.571-.724-.149a.71.71,0,0,0-.131-.013.667.667,0,0,0-.614.411l-.175.433-.1.249a.657.657,0,0,0,.252.805l1.468.949-1.356,1.19a1.353,1.353,0,0,0-.459,1.3,1.28,1.28,0,0,0,1.254,1h.128l1,3.314,1.251,4.137a.661.661,0,0,0,.634.47.713.713,0,0,0,.128-.013l.331-.066.4-.078a.661.661,0,0,0,.53-.708l-.168-1.893.107.036a3.441,3.441,0,0,1,1.424.653c1.211,1.332,2.312,2.769,3.377,4.161l.314.409-3.649-.228-.3-.973a1.35,1.35,0,0,0-1.057-.967,1.281,1.281,0,0,0-1.408.852l-.078-.2a1.371,1.371,0,0,0-1.081-.886,2.041,2.041,0,0,0-.605.076c-.346.087-.524.215-.569.16s.186-.275.375-.708a4.7,4.7,0,0,0,.16-.509,2.83,2.83,0,0,0,.092-2.341,2.782,2.782,0,0,0-1.925-1.19,7.222,7.222,0,0,0-1.683-.233c-2.1,0-3.149,1.46-4.35,4.153a1.155,1.155,0,0,0,.008.964,1.177,1.177,0,0,0,.522.54l-.011.076,0,.056a1.025,1.025,0,0,0-.763.679,1.039,1.039,0,0,0,.367,1.169l.58.438-2.523,1.025a1.088,1.088,0,0,0-.687,1.219,1.34,1.34,0,0,0,1.424,1c.053,0,.108,0,.163,0l.647-.047,0,.013.01.047-1.617.522a1.28,1.28,0,0,0-.868,1l-.013.066c-.3,1.712-.635,2.845-2.488,2.9l.406-.737a1.268,1.268,0,0,0-.016-1.269,1.273,1.273,0,0,0-1.707-.487l-1.135.595.011-.032a3.148,3.148,0,0,1,.338-1.429,13.967,13.967,0,0,1,2.763-1.777l.147-.082a1.286,1.286,0,0,0-.021-2.27l-2.394-1.248a1.309,1.309,0,0,0-.595-.147,1.28,1.28,0,0,0-.936.409c-.1.105-.207.218-.317.336-1.057,1.111-1.754,1.845-1.34,2.532.805,1.348.367,2.313-.236,3.65-.16.357-.327.724-.474,1.117l-2.546-1.6a.628.628,0,0,0-.349-.1.66.66,0,0,0-.592.957v1.914h-.362a1.285,1.285,0,0,0-1.285,1.285v2.2l-2.638-.781a1.035,1.035,0,0,0-.3-.045,1.058,1.058,0,0,0-.952.616.959.959,0,0,0,.12,1.036l.433.519-.876-.052-.823-.047c-.013,0-.026,0-.039,0a.661.661,0,0,0-.519,1.072c.1.123.167.226.225.31a1.406,1.406,0,0,0,.511.511c.779.4,1.568.784,2.405,1.193a4.54,4.54,0,0,1-.52.341,2.775,2.775,0,0,1-.332.152,1.29,1.29,0,0,0-.805.983,1.261,1.261,0,0,0,.411,1.175,2.321,2.321,0,0,1,.847,2.8c-.052-.071-.1-.139-.16-.207a7.455,7.455,0,0,0-4.971-2.685,1.55,1.55,0,0,0-1.6.926.661.661,0,0,0,.249.789l.359.239-.983.616-3.632,2.333-.141-.1a.659.659,0,0,0-.816.026l-.663.556-.265.223a.658.658,0,0,0-.167.8l.445.892.519,1.043-1.1-.616-.271-.15a1.329,1.329,0,0,0-.626-.162,1.276,1.276,0,0,0-.456.084l-2.53.975-.543-1.492-.435-1.2a1.042,1.042,0,0,0-.991-.687.984.984,0,0,0-.979.747l-.154.677-.341-.422a1.283,1.283,0,0,0-1.851-.158l-1.631,1.44-1.043-2.756a1.046,1.046,0,0,0-.986-.676.987.987,0,0,0-.975.736l-.181.75-.383-.535a.657.657,0,0,0-.538-.277.665.665,0,0,0-.264.055l-.315.139-.357.157a.655.655,0,0,0-.383.739l.478,2.281-.795-.322a1.28,1.28,0,0,0-.692-.076,1.343,1.343,0,0,0-1.028.923l-.831,2.441a1.025,1.025,0,0,0,.108.881,1.115,1.115,0,0,0,.844.49l.168.016-.475,1.214-1.717.332-.852.176a1.165,1.165,0,0,0-.375,2.134l.291.181-.608.134a1.037,1.037,0,0,0,.013,2.027,4.982,4.982,0,0,1-.818.021.761.761,0,0,0-.105-.006,1.168,1.168,0,0,0-.907,1.9l.042.052-.509-.034-.084,0a1.284,1.284,0,0,0-1.282,1.282v2.21L42,135.179a1.323,1.323,0,0,0-.506-.1,1.3,1.3,0,0,0-1.148.719,1.277,1.277,0,0,0,.026,1.188,1.274,1.274,0,0,0-1.14,1.135,1.327,1.327,0,0,0,.619,1.245l1.04.684-.791.284a1.284,1.284,0,0,0-.719,1.793l1.2,2.36a1.158,1.158,0,0,0,1.8.351l.17-.144.349.608.43.75-.121.144-1.164,1.4a1.287,1.287,0,0,0,.978,2.11,1.148,1.148,0,0,0,.231-.021l-.364.553a.666.666,0,0,0,.1.85l.335.307.21.194a.659.659,0,0,0,.852.036l1.911-1.481-.383,5.281a.659.659,0,0,0,.333.621.666.666,0,0,0,.706-.032l.527-.367c.123.063.252.126.38.189a2.687,2.687,0,0,1,1.064.713,7.681,7.681,0,0,1,.664,2.14c.094.438.2.933.346,1.471a.66.66,0,0,0,1.277,0l.283-1.057,2.215,1.093a.666.666,0,0,0-.514.53.658.658,0,0,0,.291.674c.2.128.373.244.525.348a7.662,7.662,0,0,0,.878.541,5.581,5.581,0,0,0,.684.275l-.115.236a.663.663,0,0,0,.181.805l.079.065.731.588.136.11a.664.664,0,0,0,.415.147.649.649,0,0,0,.411-.145l1.136-.9.634-.5-.047.2a1.265,1.265,0,0,0,.233,1.1,1.3,1.3,0,0,0,1.015.5,1.28,1.28,0,0,0,.679-.2L62.91,163.4a1.208,1.208,0,0,0,.542-1.186l-.05-.663,4.245.85,3.225.634a1.053,1.053,0,0,0,.223.021,1.169,1.169,0,0,0,.813-.33l1.292-1.233v.847a1.2,1.2,0,0,0,1.1,1.219,1.337,1.337,0,0,0,1.043-.487l.3-.354a5.06,5.06,0,0,0,4.014,5.189,1.285,1.285,0,0,0,1.647-1.235V164.4a1.3,1.3,0,0,0-.365-.894c-.844-.876-.933-1.13-.55-1.61a1.317,1.317,0,0,0,.259-1.117,1.271,1.271,0,0,0-.692-.863l-.938-.448.081-.092a1.285,1.285,0,0,0-.96-2.123,1.372,1.372,0,0,0-.328.042,11.789,11.789,0,0,1-2.968.288h-.364a.666.666,0,0,0-.168-.5l-.338-.378.06-.113c.234-.422.475-.857.674-1.318a2.882,2.882,0,0,0,.165-.519,1.293,1.293,0,0,0-.254-1.1,1.276,1.276,0,0,0-1-.48H71.9l2.848-4.271c.351.11.7.218,1.048.328,1.8.558,3.663,1.138,5.446,1.812.039.167.068.466.089.658l0,.057a1.179,1.179,0,0,0,2.058.727h.328l-.071.262a1.139,1.139,0,0,0-.23,1.122,1.166,1.166,0,0,0,1.1.8,1.227,1.227,0,0,0,.44-.084,13.417,13.417,0,0,1,5.021-.907,19.367,19.367,0,0,1,2.517.176,11.215,11.215,0,0,0,1.455.089,27.1,27.1,0,0,0,4.038-.409c.64-.1,1.3-.2,1.946-.27l1.633,3.484-1.835.263a1.035,1.035,0,0,0-.879.836.992.992,0,0,0,.47,1.065l.1.06-.446.173a1.022,1.022,0,0,0-.65,1.1,1.04,1.04,0,0,0,.92.894l1.98.207a7.361,7.361,0,0,1-1.17.82c-.9.551-1.827,1.125-1.95,2.114a2.533,2.533,0,0,0,.925,2.047,1.29,1.29,0,0,0,1.767.069l.818-.714.145,1.117a1.057,1.057,0,0,0,1.048.918.93.93,0,0,0,.69-.291l.409-.435,6.35,2.365a1.313,1.313,0,0,0,.449.078,1.285,1.285,0,0,0,.959-.427l.362-.409a1.026,1.026,0,0,0,.233.642,1.06,1.06,0,0,0,.81.38,1.017,1.017,0,0,0,.839-.437l.766-1.078,1.736,2.155a.661.661,0,0,0,.513.244.679.679,0,0,0,.189-.026.67.67,0,0,0,.47-.567l.118-1.15,1.911-.433,2.506-.569a1.311,1.311,0,0,0,.986-1.471l-.105-.619c-.194-1.143-.348-2.074-.493-2.96h.04a1.278,1.278,0,0,0,1.153-.716l.884-1.788a1.285,1.285,0,0,0-.4-1.61l-.37-.267-.713-.516a1.038,1.038,0,0,0,.367-1.893l-.446-.289-1.332-.86a1.289,1.289,0,0,0-1.371-.013,5.231,5.231,0,0,1-1.914.918c-.231,0-.49-.145-.981-.561l.249-.071a1.352,1.352,0,0,0,1.01-1.141,1.275,1.275,0,0,0-.889-1.342l-.92-.294.228-.459a1.024,1.024,0,0,0-.047-1,1.044,1.044,0,0,0-.881-.5,1.026,1.026,0,0,0-.386.073l-.7.281-.841.333-.944-2.284c.6-.349,1.208-.69,1.814-1.03a50.825,50.825,0,0,0,5.1-3.134c2.391-1.746,4.662-3.717,6.859-5.623q.7-.606,1.395-1.206a4.461,4.461,0,0,1,2.975-1.262,5.5,5.5,0,0,1,2.25.548c4.525,2.027,9.166,4,13.652,5.9q2.427,1.026,4.851,2.06c3,1.28,4.365,2.987,4.294,5.367-.023.9-.044,1.791-.063,2.688-.144,6.494-.291,13.209-2.978,19.417a25.042,25.042,0,0,0-1.036,3.107,13.415,13.415,0,0,1-4.19,7.294c-.44.477-.9.97-1.329,1.474a10.385,10.385,0,0,1-.805.81,5.662,5.662,0,0,0-1.57,1.99,2.365,2.365,0,0,1-2.439,1.835,6.124,6.124,0,0,1-.8-.06c-.375-.053-.752-.121-1.13-.189a15.143,15.143,0,0,0-2.622-.312,6.739,6.739,0,0,0-.82.05c-5.535.716-11.29,1.578-17.588,2.632a16.5,16.5,0,0,0-2.637.758,10.442,10.442,0,0,1-3.157.766,20.467,20.467,0,0,0-12,3.83,7.746,7.746,0,0,1-3.877.829,18.743,18.743,0,0,0-2.583.262c-.69.136-2.082.645-2.412,1.6a2.74,2.74,0,0,0,.288,1.9,1.752,1.752,0,0,0,.942.973c2.8.917,3.243,3.363,3.715,5.951l.026,0a27.868,27.868,0,0,0,.532,5.058.441.441,0,0,1,.008.12c-.058.538-.1,1.044-.131,1.521q-3.572-1-7.084-2.292c-16.917-6.232-31.505-15.718-43.167-29.611a104.813,104.813,0,0,1-15.731-25.7c-5.414-12.388-7.674-25.413-8.259-38.785a62.315,62.315,0,0,1,.349-8.385c.616-5.17,1.182-10.359,2.113-15.477.708-3.891,1.932-7.687,2.926-11.525A103.7,103.7,0,0,0,56.827,196.963a59.846,59.846,0,0,1-6.149-5.191,71.448,71.448,0,0,1-4.881-5.325,122.994,122.994,0,0,1-16.151-25.128c-5.118-12.037-7.011-24.761-8.183-37.585a82.908,82.908,0,0,1,1.552-22.925A107.182,107.182,0,0,1,39.494,60.725c1.79-2.679,3.7-5.275,5.555-7.91q-2.745,3.308-5.493,6.613a4.063,4.063,0,0,1-1.678,1.394,45.284,45.284,0,0,1,9.728-12.388,53.96,53.96,0,0,1,3.822-4.748c3.532-3.917,6.864-6.463,12.1-10.422,1.413-1.067,3.482-2.6,6.059-4.4q-4.566,2.718-9.323,5.881-2.25,1.5-4.387,3.01a28.29,28.29,0,0,1,8.985-7,20.789,20.789,0,0,0-6.594,2.74c-2.645,1.814-5.047,3.99-7.511,6.061a32.383,32.383,0,0,1-3.144,2.494,26.455,26.455,0,0,0-5.349,4.625,15.342,15.342,0,0,1-2.855,1.911c-.233-.294.228-.4,0-.689,5.621-6.374,12.212-12.339,18.665-18.414C30.7,50.615,14.73,78.2,10.559,112.568A107.764,107.764,0,0,1,21.033,71.63C35.7,41.093,59.585,20.855,91.622,10,79.43,11.7,59.949,21.9,46.3,34.564,23.164,56.037,11.072,82.836,8.928,114.183a86.693,86.693,0,0,0,1.311,23A157.023,157.023,0,0,0,15.9,159.153a115.7,115.7,0,0,0,9.656,20.611c3.894,6.478,8.828,12.364,13.608,18.269a91.558,91.558,0,0,0,16.913,15.542A98.485,98.485,0,0,0,75.7,225.13c6.851,2.96,13.949,5.351,20.732,7.913a99.259,99.259,0,0,1-21.007-7.158c-6.772-3.285-13.293-7.095-20.183-10.813.551.433.907.753,1.3,1.015A121.643,121.643,0,0,0,90.7,232.316a107.251,107.251,0,0,0,35.047,4.5,133.956,133.956,0,0,0,15.9-1.353c7.043-1.2,14.038-2.819,20.944-4.665a87.391,87.391,0,0,0,30.67-15.117c5.011-3.823,10.16-7.706,14.253-12.425,5.519-6.358,10.165-13.49,15.031-20.4a94.07,94.07,0,0,0,14.342-32.2c1.282-5.249,2.118-10.614,3.007-15.952a51.354,51.354,0,0,0,.85-8.44c0-6.872-.029-13.759-.457-20.613a61.259,61.259,0,0,0-2.039-12.913C236.04,85,233.606,77.283,230.659,69.8a117.506,117.506,0,0,0-8.1-16c-5.18-8.865-12.246-16.167-19.852-23.007A84.223,84.223,0,0,0,182.69,17.465c-1.4-.672-1.689-.386-3.409-.884-.411.013-1.654-.4-1.743-.178a11.4,11.4,0,0,0,.978.873A12.42,12.42,0,0,0,180.4,18.5a15.209,15.209,0,0,1,2.871,2.092q-3.979-1.615-7.954-3.233c-.152.021-.381.074-.417.21s.136.294.212.365a7.118,7.118,0,0,1,1.731,2.459,2.376,2.376,0,0,1,.076.275,2.275,2.275,0,0,1-.239.026c-.91.048-1.536-.461-2.614-1.135-.351-.22-.873-.535-1.539-.886a3.157,3.157,0,0,0-.6-.089,3.2,3.2,0,0,0-.677.044c6.225,4.7,12.635,9.492,18.852,14.185-.433.254-.892.524-1.353.8l1.45,2.58c-1.579-.729-2.591-1.275-3.658-1.663-1.02-.375-2.1-.587-3.447-.949,3.049,3.7,5.783,6.943,8.445,10.252,2.7,3.353,5.5,6.652,7.952,10.181,2.488,3.578,4.68,7.372,6.877,11.143,2.087,3.573,4.017,7.238,6.014,10.865l-.22.162-3.219-3.327c-.417.7-.43,1.057-.328,1.371,2.108,6.39,4.279,12.761,6.337,19.169a85.383,85.383,0,0,1,4.171,24.294,117.65,117.65,0,0,1-1.295,19.769,88.181,88.181,0,0,1-8.374,26.184,95.51,95.51,0,0,1-20.813,28.094c-1.311-.556-3.628-2.643-4.963-2.7-3.041-.145-5.126-.441-6.324-3.162a24.641,24.641,0,0,0-1.418-2.612c-.97-1.625-1.885-3.162-1.841-4.6a98.427,98.427,0,0,1,1.66-13.332c.22-1.282.446-2.606.653-3.909.178-1.117.466-2.252.744-3.348A33.8,33.8,0,0,0,178,154c.986-7.879-.824-11.61-6.914-14.266a4.589,4.589,0,0,1-.753-.509l0,0c.236-.068.464-.136.687-.2a22.438,22.438,0,0,1,3.125-.771,5.664,5.664,0,0,0,4.586-2.671c.49-.792,2.276-1.233,3.235-1.469a1.007,1.007,0,0,1,.247-.026,4.567,4.567,0,0,1,.931.147,5.63,5.63,0,0,0,1.187.173,2.135,2.135,0,0,0,.714-.113,10.361,10.361,0,0,1,3.369-.731,2.817,2.817,0,0,1,2.273.92,1.267,1.267,0,0,0,.954.42,1.4,1.4,0,0,0,.451-.076l3.259-1.149a1.009,1.009,0,0,0,.147.462,1.048,1.048,0,0,0,.883.5,1.015,1.015,0,0,0,.284-.04l.784-.217.451-.129.131.894a.658.658,0,0,0,.485.546l.338.086.338.089a.6.6,0,0,0,.168.021.664.664,0,0,0,.632-.466l.9-2.926.052.1a1.287,1.287,0,0,0,2.318-.081l.336-.771.382-.881a1.292,1.292,0,0,0-.249-1.405c-1.722-1.812-1.741-1.833-.776-3.16l.2.433a1.266,1.266,0,0,0,1.209.744,1.357,1.357,0,0,0,1.232-1.106l.21-.989.3.019.078,0a1.287,1.287,0,0,0,1.023-2.063l-.642-.844,1.725-1.1a1.224,1.224,0,0,0,.582-1.19,1.163,1.163,0,0,0-1.154-.994h-.039l.194-.231a1.019,1.019,0,0,0,.142-1.1,1.031,1.031,0,0,0-1.4-.493l-1.822.9.1-.614a1.283,1.283,0,0,0-1.172-1.484l-1.284-.1,4.777-4.895a1.286,1.286,0,0,0-.672-2.16l-.435-.087.116-.081a1.145,1.145,0,0,0,.422-1.363,1.178,1.178,0,0,0-1.02-.756,1.557,1.557,0,0,0-.215.008l-1.744.223.383-.912a1.286,1.286,0,0,0-.763-1.712c-1.368-.477-1.72-.779-1.777-.947-.029-.092-.011-.346.44-1.014l.506.4a1.281,1.281,0,0,0,.784.265,1.244,1.244,0,0,0,.414-.068l1.225-.412,1.161-.393a1.286,1.286,0,0,0,.844-1.5l-.367-1.628a1.285,1.285,0,0,0-.763-.907l-.959-.394-.407-.167.11-.257a1.037,1.037,0,0,0-.946-1.448.932.932,0,0,0-.189.019c-.241.044-.48.084-.71.12a6.113,6.113,0,0,0-2.835.931,4.668,4.668,0,0,0-1.368,3.679,13.1,13.1,0,0,0,.865,3.345c.047.142.1.286.149.433l-1.148-.438-.288-.11v-2.853a1.054,1.054,0,0,0-1.057-1.049.959.959,0,0,0-.8.417l-.443.651-.165-.727a.661.661,0,0,0-.646-.514h-.007l-.365,0-.367,0a.66.66,0,0,0-.642.533l-.428,2.157-2.4-3.492a1.28,1.28,0,0,0-1.057-.556,1.3,1.3,0,0,0-.566.131l-1.371.666-.157.079a1.283,1.283,0,0,0-.436,1.964l.742.915h-.66a1.286,1.286,0,0,0-.981,2.116l.443.524c-.619,0-1.243.029-1.518.545a3.765,3.765,0,0,1-.333.548c-.068-.089-.144-.2-.207-.286-.123-.175-.262-.375-.427-.574a6.875,6.875,0,0,0-3.522-2.283,8.823,8.823,0,0,0-2.032-.2c-.521,0-1.043.027-1.6.053-.16-.221-.212-.291-.37-.512L178.34,97.6l.524.06.583.066c.026,0,.052,0,.076,0a.661.661,0,0,0,.629-.462l.112-.348.113-.352a.66.66,0,0,0-.309-.778l-3-1.663.055-.01a1.35,1.35,0,0,0,1.093-.96,1.28,1.28,0,0,0-.739-1.5l-.464-.2q.095-.37.194-.739a.869.869,0,0,0-.5-.478l-.042-.013a2.734,2.734,0,0,0-1.476.139c-1.117.352-1.52.868-2.436.868a2,2,0,0,1-1.6-.9h.044a10.093,10.093,0,0,0,2.69-.472,6.663,6.663,0,0,1,2.182-.4,7,7,0,0,1,1.374.326,1.3,1.3,0,0,0,.367.128,1.443,1.443,0,0,0,.238.021,1.3,1.3,0,0,0,1.081-.572,1.244,1.244,0,0,0,.123-1.164,3.505,3.505,0,0,0-3.652-2.228c-.218,0-.444.008-.69.029a1.283,1.283,0,0,0-1.156.98c-.249,1.052-.556,1.052-.671,1.052a3.326,3.326,0,0,1-.978-.268,7.534,7.534,0,0,0-1.1-.335l.217-.347a1.264,1.264,0,0,0,.005-1.284,1.272,1.272,0,0,0-1.5-.585l-1.461.464-.427-1.24-.218-.629A.659.659,0,0,0,167,83.36c-.021,0-.039,0-.06,0l-.6.055-.6.055a.652.652,0,0,0-.456.244l-.305-.417a1.289,1.289,0,0,0-1.038-.53,1.274,1.274,0,0,0-.891.362l-1.55,1.494-.959-2.43a1.226,1.226,0,0,0-1.065-.8,1.149,1.149,0,0,0-1.19.965l-.021.113,0,0a1.271,1.271,0,0,0-1.177-.632,1.36,1.36,0,0,0-1.182.984l-.522,1.693-1.311-.7.844-2.265.084-.226a.924.924,0,0,0-.034-.5.892.892,0,0,0-.3-.414,4.092,4.092,0,0,0-.558-.294,4.38,4.38,0,0,0-.664-.236" fill="#86bc25"/></svg>