<?xml version="1.0" standalone="no"?>
<!DOCTYPE svg PUBLIC "-//W3C//DTD SVG 20010904//EN"
 "http://www.w3.org/TR/2001/REC-SVG-20010904/DTD/svg10.dtd">
<svg version="1.0" xmlns="http://www.w3.org/2000/svg"
 width="884.000000pt" height="884.000000pt" viewBox="0 0 884.000000 884.000000"
 preserveAspectRatio="xMidYMid meet">
<metadata>
Created by potrace 1.11, written by Peter Selinger 2001-2013
</metadata>
<g transform="translate(0.000000,884.000000) scale(0.100000,-0.100000)"
fill="#000000" stroke="none">
<path d="M3040 8719 c0 -3 -6 -6 -12 -7 -57 -4 -217 -58 -438 -148 -19 -8 -43
-17 -52 -21 -10 -3 -18 -10 -18 -16 0 -6 -2 -8 -6 -5 -7 8 -283 -134 -312
-159 -7 -7 -24 -16 -38 -19 -13 -3 -24 -10 -24 -14 0 -4 -13 -13 -30 -20 -16
-7 -30 -16 -30 -21 0 -5 -5 -9 -10 -9 -14 0 -124 -70 -128 -81 -2 -5 -8 -9
-13 -9 -9 0 -85 -52 -140 -95 -15 -11 -39 -29 -54 -40 -16 -11 -33 -24 -39
-30 -6 -5 -29 -23 -51 -40 -22 -16 -45 -34 -51 -40 -6 -5 -40 -35 -75 -65 -84
-72 -338 -326 -420 -419 -35 -41 -73 -84 -84 -97 -11 -12 -29 -35 -40 -50 -11
-15 -32 -41 -47 -58 -15 -17 -28 -34 -28 -38 0 -4 -6 -13 -13 -20 -7 -7 -24
-29 -37 -48 -13 -19 -29 -40 -35 -47 -30 -36 -35 -43 -35 -48 0 -5 -39 -64
-50 -75 -3 -3 -11 -14 -17 -25 -7 -11 -35 -57 -63 -101 -27 -45 -50 -87 -50
-93 0 -6 -4 -11 -8 -11 -10 0 -195 -369 -240 -480 -42 -100 -102 -259 -106
-279 -2 -9 -6 -23 -9 -31 -11 -30 -48 -147 -51 -166 -2 -10 -9 -31 -15 -47 -6
-15 -13 -38 -15 -50 -2 -12 -10 -44 -16 -72 -22 -92 -60 -270 -65 -300 -2 -16
-6 -43 -9 -60 -9 -55 -25 -169 -31 -220 -3 -27 -8 -66 -10 -85 -15 -115 -19
-221 -19 -430 -1 -250 10 -430 31 -510 3 -14 7 -36 9 -50 1 -14 10 -56 19 -95
8 -38 18 -85 20 -102 3 -18 11 -60 19 -93 8 -33 15 -63 15 -65 1 -3 1 -6 2 -7
1 -3 5 -24 12 -58 3 -14 15 -60 26 -102 12 -42 22 -85 24 -95 2 -10 14 -52 27
-93 13 -41 24 -79 26 -85 1 -5 14 -44 29 -85 14 -41 28 -79 29 -85 2 -5 7 -19
11 -30 4 -11 21 -51 36 -90 15 -38 35 -88 44 -110 10 -22 17 -41 17 -42 -2 -8
172 -349 179 -351 5 -2 9 -8 9 -13 0 -12 110 -194 158 -264 56 -79 76 -108 89
-124 7 -9 26 -34 42 -56 43 -56 37 -48 136 -170 49 -60 118 -146 153 -190 65
-79 359 -375 373 -375 5 0 16 -8 26 -18 82 -84 429 -332 623 -445 152 -88 422
-219 500 -242 3 -1 22 -9 44 -18 21 -9 42 -17 47 -17 5 0 28 -8 52 -19 45 -20
202 -79 227 -86 15 -4 149 -53 203 -74 44 -17 31 -20 -20 -4 -47 14 -65 19
-101 27 -10 2 -58 17 -107 32 -50 15 -92 29 -95 29 -3 1 -18 7 -35 14 -16 7
-42 15 -58 18 -15 3 -30 10 -33 14 -3 5 -12 9 -20 9 -9 0 -48 14 -87 31 -86
36 -480 230 -487 239 -5 7 -112 65 -230 126 -30 16 -57 31 -60 34 -12 13 -100
60 -112 60 -7 0 30 -28 82 -62 52 -35 95 -60 95 -58 0 3 7 -1 15 -8 27 -22 88
-60 109 -67 11 -3 27 -12 33 -18 22 -21 285 -156 409 -210 35 -16 87 -39 114
-51 28 -13 73 -31 100 -41 28 -9 59 -21 70 -25 26 -11 118 -45 125 -46 3 0 12
-3 20 -6 30 -10 127 -38 205 -59 44 -12 87 -24 95 -27 8 -3 23 -7 32 -8 9 -2
57 -13 105 -23 100 -23 118 -26 228 -46 44 -8 97 -15 118 -17 21 -1 40 -5 42
-8 2 -3 22 -6 44 -5 23 1 41 -1 41 -4 0 -8 62 -11 363 -15 148 -2 281 -1 296
4 15 4 35 3 44 -2 10 -5 17 -5 17 -1 0 4 19 9 43 9 52 2 212 13 252 18 93 11
141 18 146 21 3 2 25 6 50 9 37 5 228 42 319 62 14 3 34 7 45 9 11 2 21 4 23
5 1 2 5 3 10 4 15 3 158 37 182 43 14 4 32 8 40 9 52 8 398 112 445 134 11 5
43 18 70 29 171 65 554 267 625 329 8 7 47 35 85 62 104 74 116 83 149 112 17
16 35 28 40 28 5 0 16 8 25 18 9 9 34 30 56 47 146 107 343 302 460 456 22 28
48 60 58 71 9 10 17 23 17 28 0 6 3 10 8 10 4 0 23 24 42 53 19 28 41 59 48
67 27 30 342 492 342 501 0 5 3 9 8 9 6 0 54 76 118 188 31 54 156 304 158
316 1 6 13 33 25 61 13 27 24 54 26 60 1 5 8 24 15 40 19 45 79 223 95 280 19
70 73 274 74 280 1 3 1 6 2 8 0 1 2 11 3 22 2 11 11 61 20 110 20 102 22 115
31 170 3 22 7 47 10 55 2 8 6 31 9 50 3 19 8 46 11 60 3 14 7 39 9 55 3 17 8
55 13 85 18 118 9 993 -12 1155 -3 22 -8 58 -10 80 -3 22 -7 51 -10 65 -2 14
-7 42 -11 63 -5 35 -42 171 -93 350 -19 64 -81 262 -88 277 -3 8 -7 20 -8 26
-2 6 -30 88 -64 183 -60 168 -117 306 -168 406 -14 28 -29 57 -33 65 -23 48
-117 221 -137 252 -13 21 -23 40 -23 43 0 3 -12 24 -27 48 -14 23 -27 44 -27
47 0 3 -4 10 -8 15 -4 6 -40 55 -78 109 -38 55 -81 112 -95 128 -14 15 -25 30
-25 33 0 3 -10 16 -23 28 -12 12 -44 48 -71 81 -111 132 -441 446 -576 546
-18 14 -38 30 -44 36 -6 6 -47 35 -91 65 -44 30 -81 57 -83 62 -2 4 -7 7 -12
7 -4 0 -52 27 -106 60 -54 33 -104 60 -110 60 -7 0 -14 4 -16 8 -7 18 -176 92
-223 98 -11 1 -39 7 -62 12 -24 5 -43 7 -43 2 0 -10 35 -40 47 -40 6 0 13 -4
15 -8 2 -5 31 -27 66 -51 34 -23 62 -44 62 -46 0 -7 -95 29 -98 38 -2 4 -11 7
-21 7 -9 0 -37 9 -61 21 -62 30 -120 49 -120 40 0 -4 11 -21 24 -36 31 -36 51
-73 43 -81 -7 -8 -77 18 -77 28 0 4 -7 8 -15 8 -8 0 -15 3 -15 8 0 11 -57 34
-77 30 -12 -2 -2 -14 37 -43 30 -22 60 -43 65 -48 6 -4 37 -28 70 -53 33 -25
68 -51 77 -59 9 -7 29 -22 45 -32 15 -9 30 -20 33 -24 3 -3 41 -32 85 -65 44
-32 82 -62 83 -66 2 -5 10 -8 18 -8 8 0 14 -3 14 -7 0 -5 17 -19 38 -33 20
-14 39 -27 42 -30 3 -3 23 -18 44 -34 l39 -29 -22 -19 -23 -18 25 -45 c29 -51
24 -54 -35 -24 -48 24 -148 60 -148 53 0 -3 -8 0 -19 5 -36 20 -30 -2 17 -58
26 -30 57 -67 68 -81 23 -27 137 -165 157 -190 93 -116 143 -176 149 -178 5
-2 8 -10 8 -17 0 -7 4 -15 9 -17 10 -4 118 -139 146 -183 11 -16 22 -32 26
-35 5 -4 124 -187 166 -255 111 -181 339 -595 327 -595 -4 0 -34 27 -67 61
-33 33 -62 58 -64 55 -14 -14 0 -72 72 -287 42 -129 79 -241 82 -249 3 -8 7
-19 9 -25 1 -5 21 -68 44 -140 59 -184 93 -306 114 -416 2 -13 7 -31 10 -39 2
-8 7 -33 10 -55 3 -22 8 -51 11 -65 3 -14 7 -47 10 -75 2 -27 7 -61 9 -74 19
-88 25 -442 12 -646 -5 -66 -10 -138 -11 -160 -1 -22 -5 -56 -8 -75 -3 -19 -9
-62 -13 -95 -3 -33 -8 -69 -10 -80 -2 -11 -7 -36 -10 -55 -4 -19 -9 -44 -11
-55 -3 -11 -6 -31 -8 -45 -2 -14 -4 -25 -5 -25 -2 0 -7 -21 -15 -60 -16 -83
-105 -366 -131 -417 -8 -16 -12 -28 -10 -28 3 0 -6 -25 -19 -55 -25 -55 -50
-114 -54 -127 -13 -35 -144 -282 -201 -375 -95 -158 -93 -155 -108 -171 -6 -7
-17 -23 -24 -35 -17 -33 -174 -240 -213 -283 -5 -6 -35 -39 -65 -73 -101 -115
-226 -238 -241 -236 -8 2 -45 23 -84 49 -38 25 -79 46 -90 47 -137 7 -196 33
-237 104 -12 22 -23 42 -23 45 0 3 -19 37 -42 75 -65 111 -71 132 -67 226 2
46 5 102 8 124 8 69 16 126 21 148 5 26 16 92 20 127 2 14 4 25 5 25 1 0 3 11
5 25 14 103 25 170 31 192 3 10 7 30 10 45 3 16 7 36 10 45 3 10 7 28 10 40 2
13 6 34 10 48 12 53 15 78 19 171 6 146 -25 252 -93 322 -45 48 -115 97 -136
97 -9 0 -16 5 -16 10 0 6 -6 10 -14 10 -7 0 -20 8 -27 17 -12 15 -12 16 3 10
10 -3 20 -2 23 3 3 4 24 12 48 16 23 4 44 8 47 9 3 0 23 4 45 9 57 11 88 30
145 87 27 27 55 47 60 44 6 -3 10 -2 10 4 0 6 35 9 88 7 48 -1 95 1 105 6 56
28 138 26 179 -5 37 -28 50 -27 129 1 55 19 57 19 72 2 12 -15 24 -18 51 -13
33 5 36 4 36 -20 0 -18 7 -26 26 -31 29 -8 54 8 54 33 0 9 5 22 12 29 7 7 9
12 5 12 -4 0 -3 9 3 21 9 16 14 18 25 9 28 -23 59 -7 83 42 26 52 24 70 -13
110 -43 46 -28 111 15 68 12 -12 28 -19 37 -16 8 3 18 6 23 6 5 0 14 16 20 35
6 19 16 36 21 36 5 1 13 2 19 3 5 0 17 11 25 24 15 20 15 25 0 54 -15 31 -15
32 12 55 16 12 34 27 40 33 19 16 16 47 -6 62 -14 10 -17 18 -11 28 6 10 3 21
-7 32 -20 23 -30 22 -75 -1 l-37 -18 1 29 c1 35 -8 45 -46 52 -16 3 -30 7 -32
9 -2 2 35 43 81 91 47 48 90 96 96 107 13 25 3 56 -21 64 -16 5 -17 10 -8 30
18 40 -10 63 -68 57 -44 -4 -45 -3 -35 16 24 44 8 72 -55 98 -25 11 -34 20
-30 30 3 9 6 20 6 26 0 6 9 3 20 -7 12 -11 28 -15 42 -12 95 24 121 39 130 75
4 12 2 22 -2 22 -4 0 -6 9 -3 19 7 27 -13 58 -47 76 -17 9 -30 23 -30 33 0 31
-17 45 -52 44 -47 -2 -72 -8 -112 -27 -66 -32 -91 -147 -51 -242 18 -42 15
-48 -18 -39 -22 5 -24 10 -22 58 1 29 0 60 -3 70 -6 24 -43 30 -65 11 -16 -15
-19 -15 -27 -3 -6 8 -10 18 -10 21 0 5 -26 5 -51 0 -7 -1 -19 -35 -23 -63 -5
-34 -13 -28 -60 42 -52 79 -70 86 -137 48 -49 -27 -54 -43 -29 -86 15 -24 17
-33 7 -29 -8 3 -25 -1 -37 -10 -22 -15 -23 -33 -5 -77 6 -13 5 -17 -3 -12 -6
4 -21 -3 -33 -15 -19 -19 -23 -20 -31 -5 -16 28 -99 86 -140 97 -22 5 -59 10
-81 10 -53 0 -77 7 -77 22 0 7 15 48 33 93 31 78 33 80 60 73 21 -6 29 -3 37
11 20 38 11 52 -67 92 -43 21 -43 22 -23 40 26 24 25 43 -2 70 -12 12 -22 31
-23 43 0 17 -6 20 -42 18 -22 -1 -55 -9 -72 -17 -16 -9 -38 -16 -48 -16 -18 1
-60 27 -52 33 15 11 146 32 204 32 39 0 76 4 83 8 30 20 1 87 -49 113 -43 22
-129 21 -145 -1 -7 -10 -11 -21 -9 -25 11 -17 -24 -31 -57 -22 -30 7 -33 12
-30 39 4 42 -32 69 -72 53 -44 -16 -55 -12 -62 25 -6 35 -26 53 -51 49 -7 -1
-14 -2 -15 -4 -13 -10 -43 -5 -59 11 -22 22 -42 17 -86 -24 l-33 -30 -24 55
c-28 63 -48 75 -83 53 -17 -11 -28 -13 -37 -6 -20 17 -57 -10 -75 -55 -15 -39
-17 -41 -37 -27 l-21 14 20 54 c19 53 19 56 2 75 -10 11 -28 20 -39 21 -18 0
-17 2 6 10 33 12 39 34 20 75 -19 41 -43 54 -112 60 -53 5 -60 4 -74 -18 -8
-13 -13 -37 -11 -53 2 -17 4 -30 5 -30 9 0 6 -45 -5 -64 -11 -20 -15 -22 -16
-8 -2 18 -5 34 -9 42 -1 3 -3 8 -5 13 -15 54 -20 69 -29 79 -6 7 -17 19 -24
28 -15 18 -45 14 -92 -12 -27 -15 -36 -28 -40 -54 -3 -19 -10 -35 -16 -36 -6
-1 -23 -4 -36 -7 -25 -4 -51 6 -48 18 11 33 -55 136 -87 136 -10 0 -11 5 -3
19 20 39 11 58 -41 92 l-51 32 -57 -19 c-69 -24 -72 -24 -93 -6 -24 20 -23 30
4 34 28 4 50 45 38 69 -5 9 -23 21 -39 27 -24 8 -28 14 -24 36 4 17 -1 34 -11
45 -15 16 -23 17 -57 8 -45 -11 -55 -5 -63 37 -7 37 -9 39 -56 40 -25 1 -40 6
-40 14 0 6 5 13 10 13 13 2 29 6 33 9 1 1 14 3 29 4 39 2 60 27 68 79 14 91
-27 134 -132 142 -54 4 -65 -13 -49 -76 13 -48 12 -52 -15 -96 -16 -25 -41
-55 -56 -66 -25 -19 -27 -19 -51 -1 -14 11 -39 43 -57 72 -17 28 -37 52 -45
52 -7 0 -15 4 -17 8 -7 17 -71 55 -93 55 -24 0 -38 -14 -117 -114 l-38 -47 20
-25 c13 -17 27 -24 37 -20 11 4 14 2 11 -8 -8 -22 10 -49 33 -49 11 0 30 11
42 23 23 25 47 25 47 1 0 -9 11 -14 30 -14 17 0 30 5 30 10 0 37 83 -32 95
-78 13 -50 -20 -101 -66 -102 -3 0 -11 25 -18 55 -16 71 -49 89 -89 49 -10
-11 -17 -11 -33 -1 -28 17 -53 -2 -57 -44 -3 -31 -22 -68 -22 -42 0 13 -46 63
-79 85 -44 30 -85 21 -137 -28 -28 -27 -25 -49 8 -77 l26 -23 -29 -16 c-32
-19 -38 -48 -14 -68 19 -16 19 -40 1 -40 -18 0 -29 -31 -20 -54 5 -12 0 -16
-20 -16 -19 0 -29 -7 -36 -26 -12 -29 -1 -49 31 -59 27 -9 23 -26 -11 -55 -17
-13 -30 -34 -30 -45 0 -22 37 -64 48 -55 3 3 17 -34 32 -82 15 -49 25 -88 21
-88 -4 0 -16 7 -29 15 -25 18 -109 30 -144 22 -35 -9 -72 -47 -102 -103 -28
-52 -33 -83 -16 -100 8 -8 6 -15 -5 -24 -21 -17 -19 -36 5 -58 21 -19 21 -19
-35 -42 -40 -16 -57 -29 -61 -46 -8 -31 11 -54 45 -54 25 -1 24 -2 -11 -20
-29 -16 -40 -29 -48 -60 -11 -42 -39 -75 -71 -83 -10 -3 -22 -1 -25 4 -3 5 0
9 5 9 15 0 14 53 -1 68 -15 15 -61 15 -76 0 -16 -16 -26 -4 -19 24 4 13 25 35
47 48 76 46 88 59 85 86 -3 31 -7 35 -75 71 -61 33 -72 32 -113 -6 -42 -38
-60 -77 -48 -100 18 -33 15 -75 -8 -123 -13 -27 -26 -48 -29 -48 -3 0 -27 14
-54 31 -59 38 -76 30 -73 -35 3 -37 -1 -46 -21 -57 -20 -10 -24 -21 -25 -58
-1 -25 -1 -50 0 -55 1 -5 -13 -6 -31 -2 -89 19 -98 19 -113 0 -12 -16 -12 -22
1 -41 14 -22 13 -23 -18 -23 -18 0 -40 -4 -48 -10 -24 -15 7 -56 64 -83 l51
-25 -27 -12 c-41 -19 -44 -54 -9 -98 18 -21 29 -45 26 -57 -2 -11 -4 -23 -4
-28 -1 -4 -16 7 -33 24 -73 70 -178 98 -214 58 -23 -25 -22 -22 -6 -41 10 -13
1 -23 -67 -67 -43 -28 -89 -51 -102 -51 -29 -1 -69 -32 -69 -55 0 -9 7 -29 15
-45 18 -34 15 -36 -25 -15 -26 14 -33 13 -85 -7 -30 -11 -57 -19 -59 -17 -1 2
-11 29 -22 59 -16 47 -23 55 -47 58 -22 3 -30 -1 -34 -17 -4 -17 -8 -19 -19
-10 -29 24 -62 18 -98 -17 -39 -38 -41 -37 -65 39 -19 58 -71 73 -87 25 -4
-15 -9 -17 -17 -9 -13 13 -47 14 -66 2 -10 -7 -11 -18 -3 -57 6 -27 9 -50 8
-52 -2 -1 -14 2 -28 7 -37 14 -70 -13 -77 -62 0 -4 -8 -23 -16 -43 -14 -34
-14 -37 9 -57 19 -17 22 -25 14 -43 -8 -17 -22 -24 -60 -29 -58 -8 -90 -43
-70 -76 16 -25 15 -29 -3 -29 -19 0 -36 -41 -24 -56 11 -13 1 -24 -22 -24 -18
0 -32 -27 -27 -51 2 -8 -7 -15 -19 -17 -30 -5 -50 -40 -48 -89 0 -24 -2 -43
-6 -43 -4 0 -23 7 -44 15 -20 9 -45 13 -55 10 -18 -6 -37 -40 -32 -58 1 -4 -7
-16 -18 -27 -29 -29 -25 -55 12 -81 22 -16 27 -24 17 -27 -25 -8 -49 -34 -49
-54 0 -22 48 -119 64 -131 6 -4 22 -5 37 -3 17 3 29 -1 37 -14 10 -17 7 -27
-20 -65 -28 -39 -30 -48 -20 -70 6 -14 19 -25 27 -25 12 0 15 -6 10 -21 -8
-24 19 -59 46 -59 9 0 27 11 40 25 13 13 27 25 32 25 4 0 4 -50 1 -110 -6
-106 -5 -110 14 -110 12 0 23 4 27 10 7 11 33 3 57 -18 9 -8 23 -40 29 -71 7
-31 16 -64 21 -74 11 -21 37 -22 43 -2 3 8 7 21 9 29 7 22 79 -13 73 -35 -6
-22 1 -31 45 -57 21 -13 38 -32 40 -44 2 -12 17 -30 35 -41 31 -18 32 -18 52
2 12 12 26 21 31 21 6 0 10 5 10 11 0 5 5 7 10 4 6 -4 8 -11 5 -16 -8 -12 20
-40 42 -41 10 -1 38 11 63 27 57 35 53 31 55 58 2 18 7 22 36 21 35 -2 60 -6
114 -18 133 -29 157 -30 187 -2 33 31 38 32 38 5 0 -11 7 -28 16 -37 15 -15
19 -15 45 1 28 16 29 15 29 -6 1 -32 34 -99 61 -122 38 -33 91 -53 115 -44 31
11 36 24 36 89 0 43 -5 66 -20 88 -19 26 -20 33 -9 62 11 30 10 34 -20 59 -24
20 -30 32 -26 52 9 46 -14 54 -120 45 -49 -4 -58 -2 -67 15 -8 14 -6 28 8 57
23 49 13 91 -24 93 -13 1 -28 3 -34 4 -5 1 -18 3 -27 4 -11 1 -14 4 -8 9 15
11 55 70 55 82 0 5 5 10 10 10 6 0 10 5 10 10 0 6 8 19 18 29 16 17 21 17 140
-22 98 -32 122 -44 122 -58 0 -11 9 -28 20 -39 16 -16 25 -18 40 -10 28 15 31
13 24 -15 -10 -41 27 -73 61 -54 10 6 49 17 95 26 14 3 48 4 75 4 28 -1 93 -2
145 -3 88 -2 147 3 210 16 34 7 43 0 75 -63 29 -57 25 -71 -22 -71 -12 0 -29
-7 -37 -16 -19 -18 -21 -54 -4 -54 6 0 2 -10 -10 -23 -12 -13 -22 -28 -22 -34
0 -22 32 -43 66 -43 44 0 43 -11 -6 -44 -77 -51 -87 -102 -28 -151 28 -23 31
-24 59 -10 30 16 46 16 41 1 -1 -4 4 -19 13 -32 15 -23 17 -24 46 -9 28 15 34
14 142 -26 139 -51 153 -54 172 -39 11 10 18 9 30 -4 23 -22 38 -20 69 11 14
14 28 24 30 22 1 -2 15 -22 29 -44 15 -22 27 -36 27 -31 0 5 6 3 14 -3 16 -14
24 -6 35 37 4 15 14 27 22 27 17 1 81 14 132 26 45 12 60 41 47 91 -21 83 -21
105 -2 110 20 6 62 85 62 117 0 11 -14 29 -30 41 -27 19 -28 23 -15 37 10 9
13 23 9 37 -4 11 -7 21 -8 22 -99 60 -97 60 -150 30 -55 -31 -106 -20 -56 12
13 8 20 23 20 41 0 23 -7 32 -30 43 -25 11 -30 18 -26 40 6 39 -16 55 -58 40
-18 -7 -37 -12 -42 -12 -13 0 -46 68 -39 79 2 5 58 40 124 80 126 75 204 133
361 270 119 104 156 123 216 116 25 -3 56 -11 67 -17 12 -7 28 -13 35 -14 7
-1 24 -9 37 -18 13 -9 29 -16 34 -16 6 0 38 -13 73 -29 64 -29 81 -37 198 -86
36 -15 85 -37 110 -48 25 -12 47 -21 50 -22 50 -14 210 -91 247 -119 71 -52
80 -82 76 -243 -4 -146 -10 -288 -12 -288 -1 0 -3 -25 -5 -55 -5 -71 -14 -130
-31 -207 -15 -66 -126 -398 -150 -449 -19 -41 -128 -176 -189 -234 -26 -25
-58 -66 -72 -91 -38 -68 -58 -74 -192 -51 -63 11 -161 6 -266 -14 -11 -2 -42
-6 -70 -9 -28 -3 -76 -10 -106 -15 -30 -5 -77 -12 -105 -16 -48 -6 -59 -8
-115 -18 -14 -3 -41 -8 -60 -10 -33 -5 -56 -10 -105 -20 -11 -2 -33 -10 -50
-17 -49 -20 -83 -26 -183 -33 -129 -10 -269 -58 -373 -129 -45 -30 -58 -35
-129 -42 -161 -16 -190 -24 -219 -59 -15 -18 -9 -79 10 -102 7 -8 31 -25 53
-36 90 -46 108 -100 131 -405 2 -29 0 -55 -3 -57 -4 -2 -72 18 -152 46 -80 27
-155 52 -168 55 -12 3 -25 9 -28 14 -3 5 -13 9 -22 9 -10 0 -40 12 -67 27 -28
14 -52 26 -55 26 -17 0 -214 90 -218 99 -2 5 -12 8 -23 8 -10 0 -19 3 -19 8 0
4 -17 15 -37 24 -34 15 -109 56 -183 99 -31 18 -323 212 -341 227 -8 6 -57 46
-109 89 -52 42 -111 91 -129 108 -66 57 -266 260 -326 330 -33 38 -70 81 -82
95 -13 14 -23 27 -23 31 0 3 -13 20 -30 39 -77 86 -267 386 -361 570 -30 58
-57 107 -61 108 -5 2 -8 9 -8 14 0 6 -16 45 -36 87 -48 100 -105 245 -139 351
-15 47 -30 92 -33 100 -7 20 -7 22 -32 115 -12 44 -24 87 -27 95 -3 8 -7 22
-8 30 -1 8 -12 62 -24 120 -70 353 -101 748 -78 1025 3 44 8 91 11 105 3 14 8
54 11 90 7 70 10 96 21 175 4 27 8 64 10 80 1 17 5 39 8 51 2 12 7 44 11 72 3
28 24 120 45 204 54 212 53 209 29 153 -19 -45 -30 -80 -44 -140 -3 -11 -9
-31 -14 -45 -8 -21 -34 -119 -46 -170 -16 -71 -57 -294 -62 -330 -8 -65 -8
-64 -16 -77 -5 -8 -3 -13 3 -13 6 0 9 -4 6 -9 -33 -53 -41 -674 -12 -916 2
-16 7 -57 10 -89 4 -33 11 -79 16 -103 6 -24 12 -58 15 -76 6 -40 12 -72 31
-156 8 -36 17 -77 20 -91 2 -14 8 -34 11 -45 4 -11 8 -24 9 -30 65 -262 246
-695 399 -953 45 -76 185 -294 194 -302 3 -3 22 -27 41 -55 36 -52 56 -78 77
-100 7 -8 13 -18 13 -24 0 -6 4 -11 8 -11 4 0 21 -17 37 -39 58 -75 121 -145
237 -265 65 -67 118 -123 118 -124 0 -16 -239 202 -295 269 -126 150 -185 223
-199 248 -5 9 -12 18 -16 21 -11 8 -187 262 -202 290 -7 14 -15 27 -18 30 -18
18 -50 72 -50 84 0 8 -4 16 -8 18 -16 7 -179 306 -208 383 -98 257 -168 496
-200 684 -3 18 -8 43 -10 55 -12 51 -16 73 -19 106 -2 19 -5 37 -6 40 -1 3 -3
10 -4 15 -8 56 -17 115 -20 140 -2 17 -7 53 -10 80 -4 28 -8 68 -11 90 -2 22
-6 63 -9 90 -14 136 -17 200 -18 315 0 115 6 243 18 330 2 19 7 55 10 80 13
104 18 136 25 150 5 9 0 22 -11 34 -19 19 -19 19 -20 0 0 -10 -2 -28 -4 -39
-2 -11 -7 -51 -10 -90 -3 -38 -7 -81 -10 -95 -5 -25 -9 -71 -21 -220 -4 -41
-7 -162 -8 -267 0 -106 -4 -193 -8 -193 -4 0 -7 8 -7 18 0 9 -3 73 -7 142 -9
164 -9 353 0 465 4 50 8 108 10 130 4 43 10 86 27 180 14 74 19 103 23 135 2
14 5 25 6 25 2 0 5 13 13 55 19 94 116 406 151 483 46 102 59 133 59 145 0 6
4 12 9 12 4 0 8 7 8 16 0 9 7 28 15 42 26 48 115 245 121 269 4 12 10 23 16
23 5 0 7 4 4 8 -6 10 54 75 61 68 7 -7 -26 -116 -44 -142 -8 -13 -12 -24 -8
-24 3 0 -3 -13 -14 -29 -12 -16 -21 -34 -21 -40 0 -6 -3 -11 -7 -11 -10 0 -62
-92 -66 -116 -1 -11 -5 -24 -9 -29 -4 -6 -21 -46 -38 -90 -18 -44 -37 -91 -43
-105 -6 -14 -11 -27 -12 -30 -1 -3 -7 -18 -14 -35 -20 -48 -83 -238 -86 -260
-1 -11 -4 -21 -5 -22 -1 -2 -3 -6 -4 -10 -9 -40 -20 -92 -22 -108 -2 -11 -11
-54 -20 -95 -17 -81 -20 -138 -6 -152 5 -5 9 -3 9 4 0 7 4 27 7 43 4 17 9 44
12 60 2 17 7 41 11 55 3 14 7 30 8 35 39 166 91 353 115 410 11 27 22 58 26
70 11 42 96 250 126 308 10 20 16 37 11 37 -4 0 -3 4 2 8 6 4 35 57 65 117 30
61 58 113 63 116 5 3 8 8 7 10 -4 8 24 59 32 59 4 0 7 3 6 8 -1 4 5 18 13 32
9 14 38 61 65 105 27 44 52 85 57 90 4 6 39 56 77 112 72 105 76 136 6 37 -46
-63 -115 -138 -122 -131 -7 7 7 37 17 37 5 0 9 4 9 10 0 35 176 267 283 372
35 34 90 95 121 135 67 86 174 196 276 284 72 62 114 95 260 204 184 137 203
156 63 64 -40 -27 -73 -46 -73 -43 0 3 -7 -1 -15 -9 -8 -8 -31 -25 -52 -38
-21 -13 -40 -25 -43 -29 -5 -5 -85 -58 -145 -95 -20 -13 -13 -2 21 31 92 87
179 155 224 174 16 7 30 17 30 22 0 5 -9 4 -20 -2 -11 -6 -20 -8 -20 -6 0 3
-33 -9 -72 -28 -87 -39 -171 -96 -243 -164 -14 -13 -25 -20 -25 -17 0 3 -10
-4 -22 -17 -34 -35 -136 -119 -203 -168 -33 -25 -95 -78 -138 -120 -85 -82
-157 -132 -157 -108 0 25 195 228 516 537 82 79 138 136 124 125 -14 -10 -29
-23 -35 -29 -5 -5 -35 -30 -65 -55 -410 -335 -821 -821 -1067 -1262 -32 -56
-61 -104 -65 -106 -5 -2 -8 -8 -8 -13 0 -5 -29 -69 -64 -142 -35 -72 -76 -161
-91 -197 -14 -36 -33 -80 -42 -99 -8 -18 -16 -39 -17 -45 -1 -6 -5 -17 -9 -23
-5 -7 -10 -21 -13 -30 -2 -10 -20 -65 -40 -123 -20 -58 -45 -136 -56 -175 -31
-113 -88 -337 -93 -370 -23 -140 -49 -262 -57 -270 -6 -7 -8 -1 -4 15 6 29 15
87 22 150 3 25 7 56 9 70 2 14 7 43 11 65 3 22 19 99 35 170 15 72 30 139 32
150 2 11 7 27 10 35 3 8 15 51 27 95 12 44 24 87 27 95 4 8 7 17 8 20 0 3 9
30 20 60 10 30 17 55 16 55 -1 0 23 61 54 135 31 74 59 145 62 158 3 12 9 22
14 22 5 0 9 6 9 13 0 16 143 300 200 397 25 41 43 78 42 83 -1 4 2 7 8 7 5 0
10 5 10 10 0 6 4 16 10 23 23 28 140 211 140 219 0 4 4 8 9 8 5 0 12 8 15 18
3 9 16 28 28 42 13 14 41 51 63 83 21 32 46 62 55 67 8 5 11 10 6 10 -5 0 0 8
10 18 10 9 37 40 59 67 96 122 373 401 512 517 144 120 378 293 465 343 10 5
56 34 102 63 47 28 88 52 91 52 4 0 13 7 22 15 8 8 19 13 24 10 5 -4 9 -2 9 3
0 14 321 171 495 242 44 18 94 38 110 45 40 16 132 51 170 63 29 10 28 10 -12
9 -24 -1 -43 -5 -43 -8z m943 -2947 c21 -19 127 -156 127 -164 0 -7 -106 -1
-127 7 -6 2 -13 14 -15 27 -4 30 -51 47 -79 30 -16 -10 -24 -10 -35 -1 -8 6
-24 9 -37 7 -23 -4 -23 -4 -10 23 8 16 15 38 16 49 1 20 2 20 14 4 7 -10 13
-25 13 -35 0 -23 22 -30 51 -15 20 10 24 18 22 54 -2 40 -1 43 20 36 12 -3 30
-13 40 -22z m344 -24 c-7 -49 -16 -65 -45 -84 -32 -21 -86 -20 -120 2 -31 20
-72 64 -72 75 0 17 29 9 39 -10 6 -11 33 -24 70 -33 55 -14 61 -14 74 1 14 16
27 45 26 57 -1 6 21 23 29 24 2 0 1 -15 -1 -32z m141 -377 c91 -47 150 -151
143 -254 -1 -14 -7 -16 -28 -11 -40 9 -153 63 -153 73 0 14 -63 76 -102 100
-21 12 -38 26 -38 30 0 4 25 20 55 36 30 15 55 32 55 37 0 14 29 9 68 -11z
m909 -148 c23 -3 56 -1 73 5 28 10 32 9 42 -13 14 -31 43 -37 70 -16 21 17 22
17 50 -8 21 -18 28 -33 26 -52 -2 -18 8 -39 30 -64 34 -41 38 -50 22 -60 -22
-13 -8 -45 33 -76 23 -18 48 -39 55 -48 14 -18 16 -65 2 -56 -6 4 -8 10 -5 15
3 5 -3 18 -15 30 -17 17 -23 18 -40 8 -27 -17 -35 -53 -23 -100 6 -21 7 -38 3
-38 -3 0 -16 -9 -28 -20 -26 -24 -21 -45 21 -81 l31 -27 -33 -31 c-18 -17 -42
-31 -52 -31 -38 0 -95 31 -118 65 -26 39 -25 52 4 31 25 -18 71 -2 79 27 3 12
-2 32 -11 46 -11 17 -12 26 -5 29 7 2 22 12 34 21 20 17 21 22 10 57 -6 22
-29 68 -50 104 -34 58 -41 65 -69 65 -24 0 -33 5 -37 21 -13 49 -64 41 -90
-13 l-18 -37 -16 21 c-21 28 -67 37 -83 17 -16 -19 -60 -41 -76 -38 -7 1 -19
2 -25 3 -17 2 -73 52 -80 73 -6 14 7 17 32 8 3 -1 8 -2 12 -1 10 1 159 -19
178 -24 20 -6 36 5 43 30 13 40 -7 50 -112 60 -30 2 -56 7 -58 9 -8 8 59 95
76 99 9 3 30 3 46 0 17 -2 49 -7 72 -10z m-1044 -50 c15 -3 27 -8 27 -12 0 -6
-59 -62 -61 -58 0 1 -2 11 -4 21 -2 10 -9 23 -16 27 -15 9 -39 -7 -39 -25 -1
-15 -32 -51 -55 -63 -26 -13 -82 2 -94 25 -6 12 -4 29 6 52 10 24 17 30 20 20
9 -25 35 -50 53 -50 19 0 62 34 60 47 0 4 1 16 3 25 4 15 10 16 38 7 19 -6 46
-13 62 -16z m257 -175 c0 -14 -55 -71 -89 -92 -35 -23 -85 -42 -132 -52 -37
-7 -142 -8 -165 0 -20 6 -21 11 -13 47 13 56 28 77 70 93 21 8 52 32 69 54
l33 38 113 -40 c63 -23 114 -44 114 -48z m465 -19 c36 -29 65 -56 65 -61 0 -4
6 -8 14 -8 7 0 19 -7 26 -15 21 -26 -14 -29 -60 -5 -39 20 -43 20 -66 5 -13
-8 -24 -22 -24 -30 0 -33 -94 -5 -109 33 -19 45 3 111 43 130 28 14 36 11 111
-49z m1585 24 c14 -9 35 -25 48 -36 l22 -21 -37 -20 c-20 -12 -41 -29 -47 -38
-14 -23 8 -68 34 -68 25 0 25 -11 1 -39 -10 -12 -29 -37 -42 -56 -26 -38 -28
-39 -48 -26 -9 6 -10 14 -3 27 13 25 -1 60 -30 75 -13 7 -24 12 -25 11 -11 -7
-23 0 -17 10 4 6 9 37 11 69 l5 57 -36 13 -36 13 53 23 c62 27 114 29 147 6z
m-6553 -78 c0 -8 -4 -12 -9 -9 -5 3 -6 10 -3 15 9 13 12 11 12 -6z m3725 -50
c11 -14 25 -25 31 -25 19 0 89 -62 80 -71 -4 -4 -28 -9 -53 -11 -38 -2 -45 0
-48 17 -2 11 -15 34 -28 52 -41 54 -24 91 18 38z m1120 -101 c24 -5 68 -34 68
-46 0 -3 -21 -3 -47 -1 -84 7 -114 6 -126 -6 -6 -6 -16 -37 -22 -68 -11 -54
-11 -60 8 -81 14 -15 27 -20 40 -16 16 5 19 3 13 -12 -10 -26 -10 -26 -1 -57
7 -25 11 -27 46 -24 37 4 38 3 32 -22 -8 -34 -5 -32 -55 -33 -76 0 -128 18
-196 69 -60 45 -75 112 -34 156 15 17 145 105 197 133 23 13 40 14 77 8z
m-862 -148 c14 -2 32 -4 41 -4 32 -4 52 -29 56 -73 6 -64 40 -186 69 -243 14
-28 43 -69 64 -92 42 -46 42 -54 9 -129 -15 -32 -75 -123 -93 -140 -6 -5 -24
-28 -40 -50 -36 -49 -62 -75 -75 -75 -5 0 -11 -5 -13 -11 -2 -7 -40 -15 -86
-19 -45 -4 -87 -12 -95 -18 -39 -33 -294 -51 -397 -28 -22 5 -68 11 -150 21
-14 2 -45 6 -70 10 -25 3 -71 8 -102 9 -44 3 -76 14 -135 46 -95 51 -97 53
-74 67 15 9 23 7 46 -13 43 -36 66 -40 87 -14 11 14 16 30 12 43 -6 19 -5 19
17 3 28 -19 60 -21 77 -4 25 25 12 47 -50 84 -51 31 -58 39 -42 45 10 3 26 3
35 -2 8 -4 21 -4 29 1 8 5 21 5 30 0 9 -5 22 -5 30 0 8 5 19 5 26 -1 8 -6 19
-3 34 9 18 14 24 31 27 74 4 65 -11 88 -57 88 -27 0 -28 2 -21 28 11 37 -10
66 -47 67 -23 0 -27 5 -30 30 -4 41 50 99 84 91 13 -4 26 -1 31 6 10 17 10 78
0 78 -5 0 -6 4 -3 9 3 4 16 7 28 5 13 -1 43 -5 68 -9 68 -9 93 -15 86 -22 -8
-8 25 -32 46 -33 10 0 23 9 30 20 17 27 28 25 28 -3 0 -13 8 -31 18 -40 16
-14 20 -14 50 0 17 8 32 21 32 27 0 8 12 11 34 8 35 -4 54 13 51 48 -1 8 7 27
17 42 21 31 23 49 6 67 -11 10 13 11 122 6 74 -4 146 -8 160 -9z m2780 -162
c0 -8 -7 -28 -15 -45 -12 -23 -22 -29 -43 -27 -67 5 -72 -43 -7 -74 25 -12 45
-24 45 -27 -1 -4 -40 -34 -88 -68 -89 -63 -147 -85 -192 -73 -48 13 -118 -13
-160 -59 -9 -10 -123 -64 -258 -121 -93 -40 -218 -12 -298 66 -55 53 -72 124
-34 144 13 7 102 12 223 14 111 2 214 6 230 10 15 3 38 8 51 10 34 6 63 23 70
41 3 9 19 20 35 26 19 7 31 20 38 42 7 24 15 32 31 31 12 0 22 3 22 8 0 5 8 5
18 0 9 -5 22 -8 27 -7 6 2 22 6 36 9 18 4 31 18 44 45 19 43 31 49 120 57 33
4 61 7 62 8 11 9 43 2 43 -10z m-6434 -210 c1 -9 0 -13 -4 -10 -3 4 -7 14 -8
22 -1 9 0 13 4 10 3 -4 7 -14 8 -22z m5145 -12 c-6 -11 -31 -38 -56 -60 -36
-32 -52 -39 -73 -36 -40 8 -43 16 -17 47 18 20 30 26 48 22 18 -5 30 2 56 30
22 24 37 33 43 27 6 -6 6 -17 -1 -30z m-3045 -483 c24 -12 44 -49 44 -80 0
-21 -11 -21 -80 -4 -14 4 -43 11 -65 16 -50 12 -69 17 -72 19 -2 2 -6 3 -10 4
-5 1 -23 6 -40 10 -29 7 -46 25 -25 27 4 0 16 2 27 4 11 2 43 7 70 10 28 4 51
8 53 10 7 6 78 -5 98 -16z m315 -34 c12 2 26 8 33 13 6 5 25 14 41 19 25 9 36
7 63 -12 43 -30 98 -92 113 -127 6 -15 14 -28 18 -29 3 0 14 -2 23 -4 9 -2 29
8 43 21 23 21 26 22 31 6 18 -57 52 -72 86 -37 17 18 27 21 41 14 23 -13 54
-3 67 22 12 22 19 23 57 7 15 -6 30 -12 33 -13 3 0 19 -8 35 -17 22 -12 26
-18 15 -22 -8 -3 -28 -11 -45 -17 -16 -7 -32 -13 -35 -14 -3 -1 -26 -11 -52
-23 -76 -34 -201 -69 -241 -68 -20 1 -37 -3 -37 -7 0 -5 -5 -5 -11 -2 -6 4
-32 9 -57 12 -60 6 -197 52 -306 102 -63 30 -89 48 -100 69 -8 16 -14 31 -12
33 2 2 6 19 9 37 7 44 13 49 34 30 25 -22 61 -6 74 32 l11 29 24 -29 c16 -19
32 -27 45 -25z m-392 -223 l32 -20 -33 -31 c-38 -36 -58 -39 -83 -11 -22 24
-42 25 -65 5 -15 -14 -19 -13 -35 4 -16 18 -16 22 -2 36 46 45 127 53 186 17z"/>
</g>
</svg>
